<svg id="Layer_1" data-name="Layer 1" xmlns="http://www.w3.org/2000/svg" xmlns:xlink="http://www.w3.org/1999/xlink" viewBox="0 0 594 686.98"><defs><style>.cls-1{fill:#15003e;}.cls-2{fill:#25e899;}.cls-3{fill:#eff4ee;}.cls-4{fill:#0fce7c;stroke:#0de900;}.cls-11,.cls-15,.cls-16,.cls-17,.cls-18,.cls-19,.cls-4,.cls-6{stroke-miterlimit:10;}.cls-5{fill:#fff;}.cls-6{fill:#a37605;stroke:#000;}.cls-11,.cls-6{stroke-width:3px;}.cls-7{fill:#fadba5;}.cls-8{fill:#17c0ff;}.cls-9{fill:#fabc01;}.cls-10{fill:#fcfafa;}.cls-11,.cls-17{fill:none;}.cls-11{stroke:#15003e;}.cls-12{fill:#95a5a5;}.cls-13,.cls-14{fill:#ef4836;}.cls-13{stroke:#515150;stroke-linecap:round;stroke-linejoin:round;stroke-width:4px;}.cls-15,.cls-16{fill:#3a4f5a;}.cls-15{stroke:#1d1d1b;}.cls-16,.cls-18{stroke:#fff;}.cls-17{stroke:#595957;stroke-width:2px;}.cls-19{stroke:url(#linear-gradient);}</style><linearGradient id="linear-gradient" x1="284.34" y1="156.56" x2="419.25" y2="156.56" gradientUnits="userSpaceOnUse"><stop offset="0" stop-color="#fff"/><stop offset="1"/></linearGradient></defs><path class="cls-1" d="M183.26,388.11l35.23-56.56a11.77,11.77,0,0,1,14.83-4.46l8.17,4c5.1,2.51,6.71,8.57,3.63,13.53l-35.24,56.57h0A11.79,11.79,0,0,1,195,405.67l-8.16-4a9.2,9.2,0,0,1-4.87-5.86A9.71,9.71,0,0,1,183.26,388.11Zm59.87-50.21a6.32,6.32,0,0,0-3.37-4l-8.19-4a8.16,8.16,0,0,0-10.25,3.08l-35.25,56.57a6.4,6.4,0,0,0,1.69,8.91,8.13,8.13,0,0,0,.81.47l8.17,4h0A8.2,8.2,0,0,0,207,399.8l35.23-56.57a6.75,6.75,0,0,0,.87-5.32Z" transform="translate(-7.71 -7.09)"/><path class="cls-1" d="M209.62,345.84h0a1.78,1.78,0,0,1,2.27-.68l23.77,11.69a1.41,1.41,0,0,1,.67,1.89.93.93,0,0,1-.11.19,1.81,1.81,0,0,1-2.28.69L210.15,347.9a1.36,1.36,0,0,1-.75-.9A1.41,1.41,0,0,1,209.62,345.84Z" transform="translate(-7.71 -7.09)"/><path class="cls-1" d="M200.87,359.81h0a1.8,1.8,0,0,1,2.27-.69l23.79,11.73a1.42,1.42,0,0,1,.68,1.89,1.18,1.18,0,0,1-.11.19,1.81,1.81,0,0,1-2.29.69l-23.8-11.71a1.38,1.38,0,0,1-.74-.91A1.43,1.43,0,0,1,200.87,359.81Z" transform="translate(-7.71 -7.09)"/><path class="cls-2" d="M236.54,330.51l-13.62,21.87" transform="translate(-7.71 -7.09)"/><path class="cls-1" d="M221.49,351.69l13.63-21.88a1.83,1.83,0,0,1,2.29-.69,1.44,1.44,0,0,1,.66,1.93l-.1.17L224.38,353a1.75,1.75,0,0,1-1,.76,1.57,1.57,0,0,1-2-.92l0-.05A1.61,1.61,0,0,1,221.49,351.69Z" transform="translate(-7.71 -7.09)"/><path class="cls-3" d="M203.3,395.63l9.49-15.23h0a4,4,0,0,0-1.1-5.55,2.91,2.91,0,0,0-.45-.26l-3.36-1.66a5.08,5.08,0,0,0-6.38,1.89L192,390" transform="translate(-7.71 -7.09)"/><path class="cls-1" d="M190.6,389.33l9.49-15.23a6.92,6.92,0,0,1,8.7-2.62l3.36,1.66a5.44,5.44,0,0,1,2.47,7.28,6.44,6.44,0,0,1-.36.63l-9.49,15.21h0a1.82,1.82,0,0,1-2.29.69,1.43,1.43,0,0,1-.65-1.92,1,1,0,0,1,.1-.17l9.48-15.22a2.6,2.6,0,0,0-.79-3.6,1.06,1.06,0,0,0-.2-.12l-3.36-1.66a3.25,3.25,0,0,0-4.08,1.23l-9.48,15.22a1.83,1.83,0,0,1-2.29.69,1.48,1.48,0,0,1-.79-.89A1.62,1.62,0,0,1,190.6,389.33Z" transform="translate(-7.71 -7.09)"/><path class="cls-4" d="M203.31,395.62h0a7.18,7.18,0,0,1-9,2.7h0a5.64,5.64,0,0,1-2.63-7.53,5.3,5.3,0,0,1,.42-.73,7.19,7.19,0,0,1,9-2.73,5.66,5.66,0,0,1,2.61,7.57,4.92,4.92,0,0,1-.41.7" transform="translate(-7.71 -7.09)"/><path class="cls-1" d="M190.62,389.39a9.12,9.12,0,0,1,5.06-3.84c4.42-1.33,8.88.84,9.93,4.89s-1.59,8.42-6,9.72-8.87-.85-9.93-4.9A7.45,7.45,0,0,1,190.62,389.39Zm11.85,2a4.16,4.16,0,0,0-2.24-2.66,5.15,5.15,0,0,0-3.72-.27,5,5,0,0,0-3.62,5.82,4.6,4.6,0,0,0,5.78,3l.17-.06a5,5,0,0,0,3.62-5.8Z" transform="translate(-7.71 -7.09)"/><path class="cls-5" d="M268.83,340.72V312.36h78.29v28.36h0c0,11.09-8.1,20.09-18.09,20.09H286.92C276.93,360.72,268.83,351.77,268.83,340.72Z" transform="translate(-7.71 -7.09)"/><path class="cls-1" d="M267.31,340.72V312.36a1.63,1.63,0,0,1,1.53-1.7h78.3a1.63,1.63,0,0,1,1.52,1.7v28.36c0,12-8.8,21.77-19.63,21.78H286.92C276.1,362.43,267.33,352.72,267.31,340.72Zm3-26.62v26.62c0,10.15,7.42,18.37,16.56,18.37H329c9.14,0,16.56-8.23,16.57-18.38V314.06Z" transform="translate(-7.71 -7.09)"/><path class="cls-2" d="M383.48,328.72v26.72" transform="translate(-7.71 -7.09)"/><path class="cls-1" d="M382,355.43V328.72a1.13,1.13,0,0,1,0-.26,1.59,1.59,0,0,1,1.61-1.57h0a1.67,1.67,0,0,1,1.41,1.83V355.4h0a1.54,1.54,0,1,1-3.06.35,2,2,0,0,1,0-.35Z" transform="translate(-7.71 -7.09)"/><path class="cls-1" d="M383.48,399.47v24" transform="translate(-7.71 -7.09)"/><path class="cls-1" d="M382,423.46v-24a1.63,1.63,0,0,1,1.41-1.56,1.59,1.59,0,0,1,1.65,1.53v24h0a1.54,1.54,0,1,1-3.06.35A2,2,0,0,1,382,423.46Z" transform="translate(-7.71 -7.09)"/><path class="cls-2" d="M268.83,334h78.29" transform="translate(-7.71 -7.09)"/><rect class="cls-1" x="261.12" y="325.25" width="78.3" height="3.38"/><path class="cls-1" d="M347.12,334.05H270.58l-1.76,6.61,4,12.52,8.55,6.58,25.5,2.07,24.9-2.7,6.79-.72,7.76-11.63.84-12.75Z" transform="translate(-7.71 -7.09)"/><path class="cls-4" d="M300.33,335.14h0c0,4.95,3.62,9,8.08,9s8.09-4,8.09-9-3.62-9-8.09-9-8.08,4-8.08,9" transform="translate(-7.71 -7.09)"/><path class="cls-1" d="M298.77,335.14h0c0-5.89,4.3-10.67,9.61-10.67s9.61,4.78,9.61,10.67-4.3,10.67-9.61,10.67S298.82,341,298.77,335.14Zm9.61-7.28c-3.62,0-6.56,3.26-6.56,7.28h0c0,4,2.94,7.28,6.56,7.28s6.56-3.26,6.56-7.28S312,327.86,308.38,327.86Z" transform="translate(-7.71 -7.09)"/><path class="cls-1" d="M338.77,356.57h0a4.17,4.17,0,0,0,3.94,4.37h0a4.4,4.4,0,1,0-3.91-4.83,3.55,3.55,0,0,0,0,.46" transform="translate(-7.71 -7.09)"/><path class="cls-1" d="M269.4,356.57h0a4.19,4.19,0,0,0,4,4.37h0a4.41,4.41,0,1,0-4-4.8c0,.14,0,.29,0,.43" transform="translate(-7.71 -7.09)"/><path class="cls-3" d="M301.47,365.25c0,4,2.91,7.22,6.5,7.22h0c3.6,0,6.51-3.23,6.51-7.22S311.57,358,308,358s-6.5,3.23-6.5,7.22" transform="translate(-7.71 -7.09)"/><path class="cls-3" d="M273.77,353.59h0a2.59,2.59,0,0,0,2.44,2.71h0a2.74,2.74,0,1,0-2.44-3,2.64,2.64,0,0,0,0,.29" transform="translate(-7.71 -7.09)"/><path class="cls-3" d="M337.77,353.59h0a2.59,2.59,0,0,0,2.45,2.69h0a2.73,2.73,0,1,0-2.43-3,2.64,2.64,0,0,0,0,.28" transform="translate(-7.71 -7.09)"/><path class="cls-5" d="M337.77,411.78V376.16h0v-.55c.14-3.95,3.14-7,6.7-6.89s6.35,3.48,6.21,7.44V419h-6.45C340.68,418.92,337.77,415.72,337.77,411.78Z" transform="translate(-7.71 -7.09)"/><path class="cls-1" d="M336.26,411.78V375.55c.15-4.89,3.84-8.72,8.25-8.55s7.86,4.27,7.71,9.16V419a1.61,1.61,0,0,1-1.53,1.67h-6.45C339.83,420.63,336.26,416.72,336.26,411.78Zm12.91-35.62a5.24,5.24,0,0,0-4.72-5.24,5.16,5.16,0,0,0-5.14,5.18v35.68a5.23,5.23,0,0,0,4.93,5.48h4.93Z" transform="translate(-7.71 -7.09)"/><path class="cls-1" d="M328.54,423.46V375.72a1.53,1.53,0,0,1,3-.25,1,1,0,0,1,0,.25V423.5a1.53,1.53,0,0,1-3,.25v-.29Z" transform="translate(-7.71 -7.09)"/><path class="cls-5" d="M334,446.59a4.62,4.62,0,0,1-4.11-5,4.53,4.53,0,0,1,4.47-4.57h12a4.84,4.84,0,0,1,0,9.58H334Z" transform="translate(-7.71 -7.09)"/><path class="cls-1" d="M334,448.28c-3.23-.15-5.74-3.17-5.61-6.75s2.85-6.36,6.08-6.22h11.94a6.19,6.19,0,0,1,5.61,6.22c.13,3.58-2.39,6.6-5.61,6.75Zm.47-9.58a3.11,3.11,0,0,0,0,6.19h11.94a3.11,3.11,0,0,0,0-6.19Z" transform="translate(-7.71 -7.09)"/><path class="cls-5" d="M324.39,480.25a6.12,6.12,0,0,1-5.55-6.15c-.12-3.54,2.36-6.53,5.55-6.67h29.84a6.13,6.13,0,0,1,5.55,6.16c.12,3.54-2.36,6.52-5.55,6.66Z" transform="translate(-7.71 -7.09)"/><path class="cls-1" d="M324.38,482h-.06c-4,0-7.25-3.66-7.23-8.11s3.27-8.1,7.3-8.11h29.84c4,0,7.31,3.63,7.31,8.11s-3.27,8.11-7.31,8.11Zm0-12.84a4.53,4.53,0,0,0-4.26,4.74,4.88,4.88,0,0,0,1.23,3.32,4,4,0,0,0,3,1.38H354.2a4.51,4.51,0,0,0,4.06-4.5,4.57,4.57,0,0,0-4.06-4.94Z" transform="translate(-7.71 -7.09)"/><rect class="cls-5" x="327.18" y="439.5" width="11.49" height="20.84"/><path class="cls-1" d="M334.88,469.11a1.6,1.6,0,0,1-1.51-1.68V446.57h0a1.62,1.62,0,0,1,1.52-1.69h11.49a1.61,1.61,0,0,1,1.52,1.69v20.84h0a1.6,1.6,0,0,1-1.52,1.69h-11.5Zm10-20.83h-8.43v17.44h8.43Z" transform="translate(-7.71 -7.09)"/><path class="cls-1" d="M328.54,430.26a1.62,1.62,0,0,1,1.53-1.69h20.64a1.71,1.71,0,0,1,0,3.39H330.07A1.63,1.63,0,0,1,328.54,430.26Z" transform="translate(-7.71 -7.09)"/><rect class="cls-1" x="335.2" y="473.18" width="11.08" height="4.51"/><path class="cls-1" d="M342.9,486.44a1.6,1.6,0,0,1-1.51-1.68v-4.51h0a1.62,1.62,0,0,1,1.52-1.69H354a1.61,1.61,0,0,1,1.52,1.69v4.47h0a1.58,1.58,0,0,1-1.5,1.67H342.9Zm9.57-4.49h-8v1.11h8Z" transform="translate(-7.71 -7.09)"/><rect class="cls-1" x="318.38" y="473.18" width="11.08" height="4.51"/><path class="cls-1" d="M326.08,486.44a1.6,1.6,0,0,1-1.52-1.67h0v-4.51h0a1.62,1.62,0,0,1,1.53-1.69h11.08a1.61,1.61,0,0,1,1.52,1.69v4.52a1.6,1.6,0,0,1-1.52,1.67Zm9.56-4.48h-8v1.11h8Z" transform="translate(-7.71 -7.09)"/><path class="cls-1" d="M337.77,403.09H350.7" transform="translate(-7.71 -7.09)"/><rect class="cls-1" x="330.07" y="394.31" width="12.93" height="3.38"/><path class="cls-1" d="M337.77,384.44H350.7" transform="translate(-7.71 -7.09)"/><rect class="cls-1" x="330.07" y="375.66" width="12.93" height="3.38"/><ellipse class="cls-4" cx="334.17" cy="417.43" rx="4.84" ry="5.37"/><path class="cls-1" d="M335.5,424.51h0c0-3.91,2.87-7.08,6.39-7.07s6.37,3.18,6.37,7.09-2.87,7.07-6.39,7.06S335.51,428.41,335.5,424.51Zm3.06,0h0a3.34,3.34,0,1,0,3.31-3.7,3.52,3.52,0,0,0-3.31,3.72h0Z" transform="translate(-7.71 -7.09)"/><path class="cls-1" d="M340.65,438.72a1.62,1.62,0,0,1-1.52-1.69v-6.72h0a1.53,1.53,0,0,1,3.05-.25,1,1,0,0,1,0,.25V437h0a1.6,1.6,0,0,1-1.52,1.69Z" transform="translate(-7.71 -7.09)"/><path class="cls-1" d="M331.88,371.49a1.81,1.81,0,0,1,0-2.39l5.77-6.42a1.53,1.53,0,0,1,1.08-.49h7.88a1.7,1.7,0,0,1,0,3.38h-7.25L334,371.49a1.47,1.47,0,0,1-1.08.5A1.42,1.42,0,0,1,331.88,371.49Z" transform="translate(-7.71 -7.09)"/><path class="cls-5" d="M277.14,412V376.33a8.88,8.88,0,0,0,0-1.63c-.41-4-3.63-6.81-7.2-6.36s-6.14,4-5.73,8v42.78h6.46C274.22,419.1,277.1,415.92,277.14,412Z" transform="translate(-7.71 -7.09)"/><path class="cls-1" d="M262.68,419.12v-43.4c.15-4.9,3.85-8.73,8.26-8.57s7.87,4.28,7.72,9.17V412c0,4.89-3.59,8.84-8,8.85H264.2A1.62,1.62,0,0,1,262.68,419.12Zm8-48.29h0a5.26,5.26,0,0,0-4.94,5.5v41.09h4.94a5.24,5.24,0,0,0,4.94-5.47V376.31A5.23,5.23,0,0,0,270.68,370.83Z" transform="translate(-7.71 -7.09)"/><path class="cls-1" d="M284.77,425.33a1.61,1.61,0,0,1-1.51-1.69V375.9h0a1.53,1.53,0,1,1,3.05-.25,1,1,0,0,1,0,.25v47.76a1.6,1.6,0,0,1-1.52,1.67Z" transform="translate(-7.71 -7.09)"/><path class="cls-5" d="M284.59,442.2a4.62,4.62,0,0,0-4.12-5h-12a4.59,4.59,0,0,0-4.12,4.56,4.64,4.64,0,0,0,4.12,5h12A4.59,4.59,0,0,0,284.59,442.2Z" transform="translate(-7.71 -7.09)"/><path class="cls-1" d="M268.52,448.46a6.19,6.19,0,0,1-5.61-6.22c-.13-3.58,2.38-6.6,5.61-6.75h12a6.2,6.2,0,0,1,5.61,6.23c.13,3.58-2.38,6.6-5.61,6.74Zm0-9.58a3.11,3.11,0,0,0,0,6.19h12a3.11,3.11,0,0,0,0-6.19Z" transform="translate(-7.71 -7.09)"/><path class="cls-5" d="M296.09,474.28c.13-3.55-2.35-6.53-5.54-6.67H260.7a6.12,6.12,0,0,0-5.54,6.15c-.13,3.54,2.35,6.53,5.54,6.67h29.85A6.11,6.11,0,0,0,296.09,474.28Z" transform="translate(-7.71 -7.09)"/><path class="cls-1" d="M260.19,482.12c-4-.16-7.18-3.92-7-8.39s3.53-8,7.56-7.81h29.84c3.83.15,6.9,3.56,7,7.81.14,4.47-3,8.23-7,8.39Zm.51-12.82a4.5,4.5,0,0,0-4.05,4.5,4.58,4.58,0,0,0,4.05,4.94h29.85a4.77,4.77,0,0,0,0-9.44Z" transform="translate(-7.71 -7.09)"/><rect class="cls-5" x="260.8" y="439.68" width="11.49" height="20.84"/><path class="cls-1" d="M267,467.61V446.77h0a1.61,1.61,0,0,1,1.52-1.68H280a1.61,1.61,0,0,1,1.52,1.69v20.84a1.62,1.62,0,0,1-1.53,1.69H268.51A1.63,1.63,0,0,1,267,467.61Zm11.48-19.15H270v17.46h8.42Z" transform="translate(-7.71 -7.09)"/><path class="cls-1" d="M262.67,430.45a1.62,1.62,0,0,1,1.52-1.69h20.58a1.7,1.7,0,0,1,0,3.38h-20.6A1.62,1.62,0,0,1,262.67,430.45Z" transform="translate(-7.71 -7.09)"/><rect class="cls-1" x="253.21" y="473.34" width="11.08" height="4.51"/><path class="cls-1" d="M259.38,484.94v-4.51h0a1.62,1.62,0,0,1,1.53-1.69H272a1.61,1.61,0,0,1,1.52,1.69v4.51a1.62,1.62,0,0,1-1.53,1.69H260.91A1.63,1.63,0,0,1,259.38,484.94Zm11.08-2.82h-8v1.13h8Z" transform="translate(-7.71 -7.09)"/><rect class="cls-1" x="270.02" y="473.34" width="11.08" height="4.51"/><path class="cls-1" d="M276.21,484.94v-4.51h0a1.62,1.62,0,0,1,1.51-1.71h11.15a1.61,1.61,0,0,1,1.5,1.69v4.51h0a1.6,1.6,0,0,1-1.52,1.69H277.77A1.62,1.62,0,0,1,276.21,484.94Zm11.1-2.82h-8v1.13h8Z" transform="translate(-7.71 -7.09)"/><path class="cls-1" d="M277.09,403.26h-12.9" transform="translate(-7.71 -7.09)"/><rect class="cls-1" x="256.49" y="394.48" width="12.93" height="3.38"/><path class="cls-1" d="M277.09,384.61h-12.9" transform="translate(-7.71 -7.09)"/><rect class="cls-1" x="256.49" y="375.83" width="12.93" height="3.38"/><ellipse class="cls-4" cx="265.3" cy="417.6" rx="4.84" ry="5.37"/><path class="cls-1" d="M273,431.77c-3.52,0-6.37-3.16-6.37-7.07s2.85-7.06,6.37-7.06,6.37,3.16,6.37,7.06S276.53,431.77,273,431.77ZM273,421h0a3.72,3.72,0,1,0,3.32,4.08,2.36,2.36,0,0,0,0-.38A3.52,3.52,0,0,0,273,421Z" transform="translate(-7.71 -7.09)"/><path class="cls-1" d="M274.25,438.86a1.63,1.63,0,0,1-1.53-1.7v-6.71a1.65,1.65,0,0,1,1.41-1.57,1.6,1.6,0,0,1,1.65,1.55v6.75A1.61,1.61,0,0,1,274.25,438.86Z" transform="translate(-7.71 -7.09)"/><path class="cls-1" d="M280.87,371.66l-5.33-5.94h-7.25a1.63,1.63,0,0,1-1.41-1.57,1.67,1.67,0,0,1,1.41-1.83h7.88a1.47,1.47,0,0,1,1.08.5l5.78,6.42a1.8,1.8,0,0,1,.45,1.19,1.62,1.62,0,0,1-1.53,1.69A1.43,1.43,0,0,1,280.87,371.66Z" transform="translate(-7.71 -7.09)"/><path class="cls-5" d="M370.77,407V338h0c0-5.13,3.74-9.29,8.36-9.29h8.77c4.62,0,8.36,4.16,8.36,9.29v69h0c0,5.13-3.74,9.28-8.36,9.28h-8.77C374.48,416.23,370.77,412.08,370.77,407Z" transform="translate(-7.71 -7.09)"/><path class="cls-1" d="M369.21,407V338c0-6.06,4.43-11,9.89-11h8.77c5.46,0,9.88,4.92,9.89,11v69c0,6.06-4.43,11-9.89,11H379.1C373.64,417.92,369.22,413,369.21,407Zm9.89-76.54c-3.77,0-6.82,3.39-6.83,7.58v69c0,4.19,3.06,7.58,6.83,7.58h8.77c3.77,0,6.82-3.39,6.83-7.58V338c0-4.19-3.06-7.58-6.83-7.58Z" transform="translate(-7.71 -7.09)"/><path class="cls-4" d="M376.77,399.47h0c0,4.12,3,7.45,6.74,7.44h0c3.73,0,6.74-3.36,6.74-7.5s-3-7.48-6.76-7.48-6.74,3.36-6.74,7.5" transform="translate(-7.71 -7.09)"/><path class="cls-1" d="M375.22,399.47h0c0-5.07,3.71-9.18,8.28-9.17s8.27,4.12,8.26,9.19-3.71,9.18-8.28,9.17S375.22,404.53,375.22,399.47Zm3,0h0a5.25,5.25,0,1,0,5.21-5.81,5.54,5.54,0,0,0-5.21,5.82Z" transform="translate(-7.71 -7.09)"/><path class="cls-1" d="M370.77,357.08a1.7,1.7,0,0,1,0-3.38h25.49a1.7,1.7,0,0,1,0,3.38Z" transform="translate(-7.71 -7.09)"/><path class="cls-1" d="M370.77,374.18a1.71,1.71,0,0,1,0-3.39h25.49a1.7,1.7,0,0,1,0,3.39Z" transform="translate(-7.71 -7.09)"/><rect class="cls-1" x="338.52" y="325.85" width="24.52" height="13.92"/><path class="cls-3" d="M377.49,446.72V428.14a4.49,4.49,0,0,1,4.23-4.7h3.6a4.48,4.48,0,0,1,4.23,4.7v18.58" transform="translate(-7.71 -7.09)"/><path class="cls-1" d="M377.47,448.4a1.62,1.62,0,0,1-1.53-1.69V428.14c0-3.53,2.59-6.39,5.77-6.39h3.59c3.18,0,5.76,2.86,5.76,6.39v18.58h0A1.53,1.53,0,1,1,388,447V428.14h0a2.85,2.85,0,0,0-2.71-3h-3.59a2.86,2.86,0,0,0-2.71,3v18.58h0a1.6,1.6,0,0,1-1.53,1.68Z" transform="translate(-7.71 -7.09)"/><path class="cls-4" d="M377.47,446.72c0,3.69,2.7,6.69,6,6.69h0c3.33,0,6-3,6-6.69s-2.7-6.7-6-6.7-6,3-6,6.7" transform="translate(-7.71 -7.09)"/><path class="cls-1" d="M375.93,446.72c0-4.63,3.38-8.39,7.55-8.39s7.56,3.76,7.56,8.39-3.39,8.38-7.56,8.38S375.94,451.33,375.93,446.72Zm7.55-5a4.79,4.79,0,0,0-4.5,5h0a4.53,4.53,0,1,0,4.5-5Z" transform="translate(-7.71 -7.09)"/><rect class="cls-1" x="236.11" y="325.85" width="24.52" height="13.92"/><rect class="cls-5" x="273.64" y="291.36" width="55.7" height="13.9"/><path class="cls-1" d="M279.83,296.72h58.74V314H279.83Zm55.69,3.39H282.88v10.51h52.64Z" transform="translate(-7.71 -7.09)"/><path class="cls-1" d="M403.6,485.41H229" transform="translate(-7.71 -7.09)"/><path class="cls-1" d="M228.45,485.44a1.58,1.58,0,0,1,1.41-1.72H394.69a1.68,1.68,0,0,1,1.42,1.88,1.65,1.65,0,0,1-1.42,1.5H229.89A1.57,1.57,0,0,1,228.45,485.44Z" transform="translate(-7.71 -7.09)"/><rect class="cls-6" x="221.73" y="478.36" width="176.88" height="120.93"/><path class="cls-6" d="M125.77,526.09v36.27a26.61,26.61,0,0,1,17,3.08c23.19,13.4,46.85,26.56,64.29,47.44a33.49,33.49,0,0,1,4.78,7.5h183.7c2.49-3.51,4.88-7.09,7.45-10.55,5-6.73,9.54-12.44,16.59-17.15,8.3-5.53,17-6.1,26.61-4.56a3.64,3.64,0,0,1,.73.15c3.34-3.08,6.7-6.14,10.12-9.12a30.63,30.63,0,0,1,9.87-5.84V526.09Z" transform="translate(-7.71 -7.09)"/><path class="cls-7" d="M304.71,7.09,7.71,178.58v343l297,171.49,297-171.49v-343ZM550.47,492,304.74,633.89,58.93,492V208.23l245.81-142,245.73,142Z" transform="translate(-7.71 -7.09)"/><path class="cls-8" d="M304.71,8.09,7.71,179.58v343l297,171.49,297-171.49v-343ZM550.47,493,304.74,634.89,58.93,493V209.23l245.81-142,245.73,142Z" transform="translate(-7.71 -7.09)"/><path class="cls-9" d="M304.68,66.24,58.88,208.17V492l245.8,141.91L550.41,492V208.17ZM538,484.85,304.68,619.58,71.28,484.85V215.35L304.68,80.58,538,215.35Z" transform="translate(-7.71 -7.09)"/><path class="cls-10" d="M325.1,284.29l30.29,24.48c16.61,8.19,34.87.38,34.87.38,13.08-6.42,17.82-21.95,17.82-21.95,5.45-26.44-21.22-40.63-21.22-40.63l-37.19-8.24Z" transform="translate(-7.71 -7.09)"/><path class="cls-4" d="M325.18,284.17l23.15-47,13.93,3-.26,5.06-24.15,49Z" transform="translate(-7.71 -7.09)"/><path class="cls-3" d="M340.33,233.31l8,3.93-23.14,46.92-8-3.92c-4.05-2-5.86-6.59-4.08-10.26l16.6-33.67C331.54,232.68,336.27,231.34,340.33,233.31Z" transform="translate(-7.71 -7.09)"/><path class="cls-1" d="M328.16,235.53c2.17-4.42,7.95-6,12.85-3.58l9.48,4.68L326,286.28l-9.52-4.7c-4.9-2.41-7.11-8-4.94-12.37Zm17.91,2.32-6.48-3.2c-3.22-1.59-7-.53-8.43,2.38l-16.6,33.67c-1.43,2.9,0,6.54,3.24,8.14l6.48,3.2Z" transform="translate(-7.71 -7.09)"/><path class="cls-4" d="M354.94,259.46a23.4,23.4,0,0,1,6.54-3.53c12.78-4.47,27.86,2,33.69,14.38,2.88,6.19-9.31,30.17-16.32,31.48a25.51,25.51,0,0,1-6.87.37c-14-1.15-25.36-12.72-25.3-25.86" transform="translate(-7.71 -7.09)"/><path class="cls-1" d="M344.46,276.84A1.52,1.52,0,0,1,346,276a1.78,1.78,0,0,1,1.71,1.65c.48,12.91,12,23.87,25.82,24.5a27.29,27.29,0,0,0,2.86,0,1.8,1.8,0,0,1,1.89,1.45,1.45,1.45,0,0,1-1.22,1.65h-.18a25.18,25.18,0,0,1-3.25,0c-15.57-.72-28.63-13.13-29.17-27.77a1.54,1.54,0,0,1,.13-.67Z" transform="translate(-7.71 -7.09)"/><path class="cls-1" d="M354.56,257a24.75,24.75,0,0,1,3.91-2.22c13.54-6.18,30.77-.44,38.55,12.79a1.44,1.44,0,0,1-.44,2l-.17.09a1.84,1.84,0,0,1-2.28-.75c-6.85-11.69-22.07-16.73-34-11.28a22.19,22.19,0,0,0-3.45,2,1.69,1.69,0,0,1-1.75.08,1.61,1.61,0,0,1-.82-2.12A1.42,1.42,0,0,1,354.56,257Z" transform="translate(-7.71 -7.09)"/><path class="cls-1" d="M386,244.55l.43.2c19.92,9.83,28.88,32.37,20,50.31s-32.17,24.54-52.12,14.69l-.19-.09-31-25.2,24.18-49Zm-30.17,62.58c18,8.53,38.73,2.66,46.94-13.25,8.42-16.3.56-37-17.57-46.31l-35.88-8.52L327.2,283.89Z" transform="translate(-7.71 -7.09)"/><path class="cls-1" d="M340.41,298.22h0a1.7,1.7,0,0,1,3,1.49l-1.59,3.21a4,4,0,0,0,2.06,5.17l13.32,6.56a4,4,0,0,0,5.35-1.51l.67-1.35a1.72,1.72,0,0,1,3,1.5l-.67,1.35c-1.66,3.37-6,4.59-9.77,2.77l-13.33-6.58c-3.73-1.83-5.41-6.07-3.75-9.43l1.58-3.21Z" transform="translate(-7.71 -7.09)"/><path class="cls-1" d="M380.08,234.64l13.33,6.57c3.73,1.84,5.4,6.06,3.75,9.42l-.67,1.37a1.62,1.62,0,0,1-2,.57,1.65,1.65,0,0,1-1-2.07l.67-1.37a4,4,0,0,0-2.06-5.16l-13.34-6.58a3.93,3.93,0,0,0-5.35,1.51l-1.59,3.22a1.61,1.61,0,0,1-2,.57,1.65,1.65,0,0,1-1-2.07l1.58-3.2C371.93,234,376.32,232.85,380.08,234.64Z" transform="translate(-7.71 -7.09)"/><path class="cls-1" d="M360.33,309.4c26.41-6.95,40.12-33.15,30.7-58.66l0-.16a1.4,1.4,0,0,1,.88-1.77,1.05,1.05,0,0,1,.24-.06,1.81,1.81,0,0,1,2.06,1.22c10,27.15-4.56,55-32.68,62.43h0a1.83,1.83,0,0,1-2.14-1,1.47,1.47,0,0,1,0-1.18A1.5,1.5,0,0,1,360.33,309.4Z" transform="translate(-7.71 -7.09)"/><path class="cls-1" d="M364.52,239.79a1.65,1.65,0,0,1,1,2.07L339.35,295a1.73,1.73,0,0,1-3.05-1.51l26.19-53.12A1.64,1.64,0,0,1,364.52,239.79Z" transform="translate(-7.71 -7.09)"/><path class="cls-5" d="M385.25,271h0c3.34,1.64,4.84,5.43,3.35,8.43h0c-1.49,3-5.39,4.13-8.76,2.47s-4.85-5.43-3.36-8.45,5.38-4.13,8.75-2.47" transform="translate(-7.71 -7.09)"/><path class="cls-5" d="M378.1,262.72a2.62,2.62,0,0,1,1.37,3.43h0a2.75,2.75,0,1,1-1.62-3.54l.25.11" transform="translate(-7.71 -7.09)"/><path class="cls-1" d="M349.34,243.49h0a1.71,1.71,0,0,1,3,1.5c-.27.55,0,1.12.82,2.3s2.06,3.25,1.05,5.31-3.35,2.27-4.83,2.37-2.07.22-2.34.77,0,1.12.81,2.32,2.07,3.24,1.05,5.3-3.34,2.25-4.82,2.36-2.08.23-2.35.78,0,1.12.81,2.32,2.09,3.19,1.06,5.29-3.23,2.26-4.84,2.39-2.06.21-2.33.76-.06,1,.81,2.33,2.08,3.2,1.05,5.28a1.6,1.6,0,0,1-2,.57,1.65,1.65,0,0,1-1-2.06c.28-.56.07-1-.82-2.33s-2.05-3.24-1-5.29,3.35-2.27,4.82-2.38,2.08-.21,2.35-.77,0-1-.82-2.33-2-3.24-1-5.28,3.34-2.23,4.83-2.38,2.07-.2,2.34-.76.06-1-.82-2.34-2.07-3.19-1-5.28,3.33-2.24,4.83-2.38,2.07-.21,2.34-.76.06-1-.82-2.35-2.07-3.18-1.05-5.26Z" transform="translate(-7.71 -7.09)"/><polygon class="cls-1" points="295.53 290.87 302.21 290.87 302.19 289.59 295.51 289.59 295.53 290.87"/><polygon class="cls-1" points="295.53 292.16 302.21 292.16 302.19 290.87 295.51 290.87 295.53 292.16"/><path class="cls-1" d="M315,249c-6.23,1.16-10,6.25-11.18,11.74,0,.19-.07.39-.11.58h6.76l.14-.53a10.71,10.71,0,0,0,.58-1.54c0,.14-.23.41-.05.06l.05-.11h0l.15-.29c.12-.23.25-.45.39-.68s.28-.43.43-.64l.15-.22c-.19.17-.11,0,.12-.14a.6.6,0,0,0-.12.14l.11-.11a4.57,4.57,0,0,1,1.38-1.25s-.5.31-.17.14l.42-.26a8.69,8.69,0,0,1,.86-.44l.09-.05c-.11,0-.15.05.07,0l-.07,0,.35-.12c.31-.1.62-.19.94-.26l.47-.1.3-.05c-.12,0-.45.07,0,0s.19,0,0,0h0l.6,0a6,6,0,0,1,2.07.06c-.06,0-.8-.13-.16,0l.61.11.35.08,3.59-5.36A18.6,18.6,0,0,0,315,249Z" transform="translate(-7.71 -7.09)"/><polygon class="cls-1" points="296.03 281.59 302.71 281.59 302.69 280.3 296.01 280.3 296.03 281.59"/><polygon class="cls-1" points="296.03 285.44 302.71 285.44 302.69 284.16 296.01 284.16 296.03 285.44"/><polygon class="cls-1" points="296.03 284.16 302.71 284.16 302.69 282.87 296.01 282.87 296.03 284.16"/><polygon class="cls-1" points="296.03 277.73 302.71 277.73 302.69 276.44 296.01 276.44 296.03 277.73"/><polygon class="cls-1" points="296.03 280.3 302.71 280.3 302.69 279.01 296.01 279.01 296.03 280.3"/><polygon class="cls-1" points="296.03 288.01 302.71 288.01 302.69 286.73 296.01 286.73 296.03 288.01"/><polygon class="cls-1" points="296.03 289.3 302.71 289.3 302.69 288.01 296.01 288.01 296.03 289.3"/><polygon class="cls-1" points="296.03 276.44 302.71 276.44 302.69 275.16 296.01 275.16 296.03 276.44"/><polygon class="cls-1" points="296.03 261.01 302.71 261.01 302.69 259.73 296.01 259.73 296.03 261.01"/><polygon class="cls-1" points="296.03 257.16 302.71 257.16 302.69 255.87 296.01 255.87 296.03 257.16"/><polygon class="cls-1" points="296.03 264.87 302.71 264.87 302.69 263.59 296.01 263.59 296.03 264.87"/><polygon class="cls-1" points="296.03 258.44 302.71 258.44 302.69 257.16 296.01 257.16 296.03 258.44"/><polygon class="cls-1" points="296.03 262.3 302.71 262.3 302.69 261.01 296.01 261.01 296.03 262.3"/><polygon class="cls-1" points="296.03 272.59 302.71 272.59 302.69 271.3 296.01 271.3 296.03 272.59"/><polygon class="cls-1" points="296.03 266.16 302.71 266.16 302.69 264.87 296.01 264.87 296.03 266.16"/><polygon class="cls-1" points="296.03 273.87 302.71 273.87 302.69 272.59 296.01 272.59 296.03 273.87"/><polygon class="cls-1" points="296.03 270.01 302.71 270.01 302.69 268.73 296.01 268.73 296.03 270.01"/><polygon class="cls-1" points="296.03 268.73 302.71 268.73 302.69 267.44 296.01 267.44 296.03 268.73"/><path class="cls-1" d="M500.4,166.52,495,144.21l-7.68,13.17-2.83-1.65,11.71-20.08c1.81,7.55,3.56,14.87,5.38,22.45L509.25,145l2.77,1.62Z" transform="translate(-7.71 -7.09)"/><path class="cls-1" d="M383.47,76.24l-3,.71c-.22-.79-.39-1.56-.65-2.28a8,8,0,0,0-13.61-2.47,8.22,8.22,0,0,0,1.51,12.43c3,2.06,7.46.81,8.62-1.48l-4.57-2.67,1.56-2.67,3.84,2.24L381,82.26a10.06,10.06,0,0,1-14.39,5.26,11.31,11.31,0,0,1-5.65-11.74,11.59,11.59,0,0,1,9.51-9.35A11.34,11.34,0,0,1,383.47,76.24Z" transform="translate(-7.71 -7.09)"/><path class="cls-1" d="M433.91,120.54a23.84,23.84,0,0,0-1.39,2.42c-.36.84-.89.93-1.69.84-7-.85-11.65-7.14-10.14-13.83a11.47,11.47,0,0,1,20.75-3.75,1.21,1.21,0,0,1,0,1.54c-.5.74-.91,1.54-1.49,2.52-1.28-3-3.14-5.25-6.31-6a7.74,7.74,0,0,0-5.24.71,8.53,8.53,0,0,0-4.51,9.48C424.94,118.7,428,120.57,433.91,120.54Z" transform="translate(-7.71 -7.09)"/><path class="cls-1" d="M414.17,93l-9.44,16.2-2.82-1.65,9.42-16.17L407,88.87l1.5-2.58L420,93l-1.49,2.55Z" transform="translate(-7.71 -7.09)"/><path class="cls-1" d="M396.61,79.28l2.68,1.56-11,18.83-2.68-1.56Z" transform="translate(-7.71 -7.09)"/><path class="cls-1" d="M473.26,149.21l-2.67-1.55,11-18.83,2.67,1.55Z" transform="translate(-7.71 -7.09)"/><circle class="cls-11" cx="450.49" cy="117.48" r="11.45"/><path class="cls-12" d="M201.16,390.43q-.28,16.32-.55,32.63c0,2,0,2-2.07,1.89l-.69,0c-2.77-.1-2.77-.09-2.72-2.79q.24-15,.49-30c0-.6,0-1.2-.06-1.8l5.17.08Z" transform="translate(-7.71 -7.09)"/><path class="cls-13" d="M202.34,425.08l3.56.07c2.56.06,5.41-.53,7.6.41s3.62,3.38,5.37,5.18c4.64,4.78,9.27,9.57,13.93,14.32a3,3,0,0,1,.95,2.31c-.19,9.3-.31,18.59-.52,27.88a3.48,3.48,0,0,1-.91,2.15q-9.62,9.75-19.35,19.37a2.81,2.81,0,0,1-1.81.76q-14.41-.16-28.82-.46a2.3,2.3,0,0,1-1.44-.64q-9.63-10.21-19.18-20.5a2.27,2.27,0,0,1-.55-1.47q.18-14.37.48-28.72a2.48,2.48,0,0,1,.71-1.54q9.67-9.39,19.42-18.7a2.88,2.88,0,0,1,1.83-.69c3.35,0,6.7.08,10.25.14l.58-34.63,1.12,0c0,.6.07,1.2.06,1.8q-.24,15-.49,30c0,2.7,0,2.69,2.72,2.79l.69,0c2,.08,2,.08,2.07-1.89q.27-16.32.55-32.63l1.12,0q-.25,16.24-.5,32.48c0,.64,0,1.28,0,2.15h.59m-4.37,3.7c-4.24-.07-8.48-.11-12.73-.23a3,3,0,0,0-2.34.91c-5.5,5.36-11.06,10.67-16.55,16a3.44,3.44,0,0,0-.94,2.14q-.3,12.47-.41,24.95a3.7,3.7,0,0,0,.88,2.31c5.43,5.88,10.93,11.7,16.38,17.56a3,3,0,0,0,2.31,1q12.31.15,24.62.41a3,3,0,0,0,2.44-1c5.68-5.71,11.4-11.38,17.06-17.11a3,3,0,0,0,.79-1.93q.28-12.62.42-25.23a3,3,0,0,0-.78-1.93q-8.07-8.41-16.25-16.73a3.24,3.24,0,0,0-2-.88C206.56,428.89,202.26,428.86,198,428.78Z" transform="translate(-7.71 -7.09)"/><path class="cls-5" d="M198,428.78c4.29.08,8.59.11,12.87.26a3.24,3.24,0,0,1,2,.88q8.19,8.31,16.25,16.73a3,3,0,0,1,.78,1.93q-.14,12.62-.42,25.23a3,3,0,0,1-.79,1.93c-5.66,5.73-11.38,11.4-17.06,17.11a3,3,0,0,1-2.44,1q-12.3-.27-24.62-.41a3,3,0,0,1-2.31-1c-5.45-5.86-10.95-11.68-16.38-17.56a3.7,3.7,0,0,1-.88-2.31q.1-12.48.41-24.95a3.44,3.44,0,0,1,.94-2.14c5.49-5.37,11.05-10.68,16.55-16a3,3,0,0,1,2.34-.91C189.49,428.67,193.73,428.71,198,428.78Zm-.05,2.32c-4-.07-8-.17-12-.17a3.07,3.07,0,0,0-1.94.77q-7.74,7.37-15.38,14.83a3.29,3.29,0,0,0-.88,2q-.27,11.63-.38,23.28a3.23,3.23,0,0,0,.79,2.07q7.58,8.22,15.28,16.3a3.15,3.15,0,0,0,2,.87q11.55.29,23.09.38a3.14,3.14,0,0,0,2-.82q8-7.83,15.81-15.79a3,3,0,0,0,.83-1.9q.28-11.71.39-23.42a3.23,3.23,0,0,0-.81-2.05q-7.37-7.73-14.87-15.34a3.12,3.12,0,0,0-1.92-.82C205.94,431.19,201.93,431.16,197.92,431.1Z" transform="translate(-7.71 -7.09)"/><path class="cls-14" d="M197.14,431.09c4,.07,8,.1,12,.24a3.1,3.1,0,0,1,1.92.82q7.5,7.61,14.88,15.34a3.22,3.22,0,0,1,.8,2.05q-.11,11.7-.38,23.42a3.13,3.13,0,0,1-.83,1.9q-7.84,8-15.82,15.78a3.18,3.18,0,0,1-2,.83q-11.55-.11-23.08-.38a3.23,3.23,0,0,1-2-.87q-7.71-8.09-15.28-16.3a3.32,3.32,0,0,1-.79-2.08q.1-11.64.39-23.28a3.22,3.22,0,0,1,.87-2q7.64-7.48,15.39-14.83a3.06,3.06,0,0,1,1.93-.77C189.12,430.92,193.13,431,197.14,431.09Zm-7.24,29.7a51.73,51.73,0,0,0,1,5.44,5.25,5.25,0,0,0,5,4.15,5.48,5.48,0,0,0,5.49-3.57,14.57,14.57,0,0,0,.15-11.65,5.44,5.44,0,0,0-10.15-.08A47.77,47.77,0,0,0,189.9,460.79Zm17.77,9.27c1.84.59,3,.25,4-1.26,2-3,4.26-5.87,6.32-8.85a8,8,0,0,0,.74-2.4,12.37,12.37,0,0,0-2.06-.43c-2-.09-4.06-.09-6.19-.12,0-1.41,0-2.56.07-3.72.07-1-.46-1.14-1.28-1.14s-1.37,0-1.33,1.07c.05,1.19,0,2.39,0,3.37-.84.84-2.52-.52-2.55,1.45s1.72.63,2.48,1.54Zm-30.9-11c0,.26,0,.76,0,1.26-.05,2.74-.12,5.48-.11,8.22,0,.4.3,1.1.56,1.15a2.54,2.54,0,0,0,3-1c2.14-3.15,4.49-6.16,6.66-9.29a8.32,8.32,0,0,0,.75-2.4,12.74,12.74,0,0,0-2-.44c-2-.08-4.06-.08-6.2-.12,0-1.12,0-2,.05-2.88,0-2.15-.27-2.36-2.58-1.68l-.07,4.1c-.79.93-2.5-.49-2.53,1.49S176,458.15,176.77,459.08Z" transform="translate(-7.71 -7.09)"/><path class="cls-5" d="M190.68,460.8a45.5,45.5,0,0,1,1.5-5.71,5.16,5.16,0,0,1,5.24-3.44,5.1,5.1,0,0,1,4.9,3.51,14.49,14.49,0,0,1-.15,11.65,5.45,5.45,0,0,1-5.49,3.57,5.23,5.23,0,0,1-5-4.15A52,52,0,0,1,190.68,460.8Zm2.72.26c.31,1.7.52,3.35.94,4.94a2.74,2.74,0,0,0,5.31.26,14.33,14.33,0,0,0,.26-10.31,2.78,2.78,0,0,0-2.61-2.16,2.71,2.71,0,0,0-2.76,2.14C194,457.6,193.77,459.33,193.4,461.06Z" transform="translate(-7.71 -7.09)"/><path class="cls-5" d="M208.45,470.07l.17-10.5c-.77-.91-2.52.44-2.49-1.53s1.71-.61,2.56-1.46c0-1,.08-2.17,0-3.37,0-1,.55-1.07,1.33-1.06s1.34.14,1.28,1.14-.05,2.31-.07,3.71c2.13,0,4.16,0,6.19.12a12.59,12.59,0,0,1,2.06.43,8.52,8.52,0,0,1-.74,2.4c-2.06,3-4.32,5.84-6.33,8.85C211.44,470.32,210.29,470.66,208.45,470.07Zm8.16-10.65-5.29-.09-.12,7.49Z" transform="translate(-7.71 -7.09)"/><path class="cls-5" d="M177.54,459.08c-.78-.93-2.53.41-2.5-1.56s1.73-.57,2.53-1.5l.07-4.09c2.31-.69,2.61-.48,2.58,1.68,0,.87,0,1.75-.05,2.88,2.14,0,4.17,0,6.19.12a12.26,12.26,0,0,1,2,.43,8.7,8.7,0,0,1-.74,2.41c-2.17,3.13-4.52,6.13-6.66,9.28-.84,1.25-1.89,1.21-3,1-.26-.06-.56-.76-.57-1.16,0-2.74.07-5.48.11-8.22C177.53,459.84,177.54,459.34,177.54,459.08Zm2.55,7.24,5.4-7.41-5.28-.09Z" transform="translate(-7.71 -7.09)"/><path class="cls-14" d="M193.4,461.06c.37-1.73.64-3.46,1.14-5.13a2.71,2.71,0,0,1,2.76-2.14,2.78,2.78,0,0,1,2.61,2.16,14.33,14.33,0,0,1-.26,10.31,2.74,2.74,0,0,1-5.31-.26C193.92,464.41,193.71,462.76,193.4,461.06Z" transform="translate(-7.71 -7.09)"/><path class="cls-14" d="M216.61,459.42l-5.41,7.4.12-7.49Z" transform="translate(-7.71 -7.09)"/><path class="cls-14" d="M180.09,466.32l.12-7.5,5.28.09Z" transform="translate(-7.71 -7.09)"/><ellipse class="cls-15" cx="195.83" cy="488.75" rx="2.09" ry="2.1" transform="matrix(0.02, -1, 1, 0.02, -303.8, 669.39)"/><circle class="cls-16" cx="195.83" cy="488.75" r="0.51" transform="translate(-303.8 669.39) rotate(-89.05)"/><ellipse class="cls-15" cx="197.53" cy="433.28" rx="2.09" ry="2.1" transform="translate(-246.67 616.53) rotate(-89.05)"/><circle class="cls-16" cx="197.53" cy="433.28" r="0.51" transform="translate(-246.67 616.53) rotate(-89.05)"/><line class="cls-17" x1="193.64" y1="383.07" x2="187.63" y2="382.97"/><path class="cls-18" d="M263.16,239.29c-1.32.08-2.63.22-3.94.22-5.48,0-11,0-16.38,0-2.21-17.44-14.78-22-26.78-17.31-3.43-15-12.09-25-28-26.05-14.93-1-24.71,7.05-30.43,20.35-17.58-8.37-33.36,1.74-33.67,20.8-12.28,0-24.57,0-36.86-.08-.8,0-1.59-1.08-2.38-1.66,1-.6,1.91-1.7,2.88-1.71,9.66-.13,19.32-.2,29,0,3.26.06,4.55-.88,5.18-4.26a23.47,23.47,0,0,1,28.2-18.9c4.31.94,6.47.49,9.11-3.54,7.18-11,18.07-15.72,31-14.21,12.69,1.48,21.94,8.42,26.68,20.52,1.23,3.14,2.33,4.27,6,3.74,9.66-1.39,18.73,4.81,21.62,14.65,1,3.44,2.55,4.53,5.92,4.3a70.51,70.51,0,0,1,10.48.07c1.05.07,2,1.28,3,2Z" transform="translate(-7.71 -7.09)"/><path class="cls-18" d="M186.77,269.21c3.55-2.91,59.44-3,63.7,0Z" transform="translate(-7.71 -7.09)"/><path class="cls-18" d="M187.08,251.27H91.83C94.88,248.54,182.44,248.06,187.08,251.27Z" transform="translate(-7.71 -7.09)"/><path class="cls-19" d="M418.11,173.84c-1,.06-1.95.16-2.93.17-4.08,0-8.16,0-12.2,0-1.65-13-11-16.36-19.94-12.89-2.56-11.16-9-18.58-20.85-19.4-11.11-.76-18.39,5.25-22.66,15.15-13.09-6.23-24.84,1.3-25.07,15.49-9.14,0-18.3,0-27.45-.05-.59,0-1.18-.81-1.77-1.24.71-.44,1.42-1.26,2.14-1.27,7.19-.1,14.39-.15,21.59,0,2.42,0,3.38-.66,3.85-3.18a17.47,17.47,0,0,1,21-14.07c3.21.7,4.82.36,6.78-2.64,5.35-8.18,13.46-11.71,23.07-10.58,9.45,1.1,16.34,6.27,19.87,15.28.91,2.34,1.73,3.18,4.48,2.78,7.19-1,14,3.59,16.1,10.91.76,2.56,1.9,3.38,4.41,3.2a53.44,53.44,0,0,1,7.8.06c.79.05,1.51,1,2.26,1.47Z" transform="translate(-7.71 -7.09)"/><path d="M330.25,196c2.65-2.17,44.27-2.25,47.44,0Z" transform="translate(-7.71 -7.09)"/><ellipse cx="371.12" cy="175.93" rx="38.67" ry="0.7"/><path d="M305.27,182.42h35.26C338.31,184.32,308.71,184.66,305.27,182.42Z" transform="translate(-7.71 -7.09)"/></svg>