<?xml version="1.0" encoding="utf-8"?>
<!-- Generator: Adobe Illustrator 24.3.0, SVG Export Plug-In . SVG Version: 6.00 Build 0)  -->
<svg version="1.1" id="Layer_1" xmlns="http://www.w3.org/2000/svg" xmlns:xlink="http://www.w3.org/1999/xlink" x="0px" y="0px"
	 viewBox="0 0 613.5 708.5" style="enable-background:new 0 0 613.5 708.5;" xml:space="preserve">
<style type="text/css">
	.st0{opacity:0.25;fill:#45C8FF;enable-background:new    ;}
	.st1{fill:#C3272E;}
	.st2{fill:#002212;}
	.st3{fill:#115928;}
	.st4{fill:#C7242E;}
	.st5{fill:#FFFFFF;}
	.st6{stroke:#050505;stroke-miterlimit:10;}
	.st7{fill:#D02900;}
	.st8{stroke:#0A0A0A;stroke-width:7;stroke-miterlimit:10;}
	.st9{fill:#AC8200;}
	.st10{fill:#E5C420;}
	.st11{fill:#E4AC00;}
	.st12{fill:#EDC624;}
	.st13{fill:none;stroke:#0FCE7C;stroke-width:14;stroke-miterlimit:10;}
	.st14{fill:#C0FF2A;stroke:#0FCE7C;stroke-width:11;stroke-miterlimit:10;}
	.st15{fill:#15003E;}
	.st16{fill:#34001D;}
	.st17{fill:#5865A5;}
	.st18{opacity:0.25;fill:none;stroke:#000000;stroke-width:20;stroke-miterlimit:10;enable-background:new    ;}
	.st19{fill:#606060;stroke:#0D5C00;stroke-miterlimit:10;}
	.st20{fill:none;stroke:#0FCE7C;stroke-width:4;stroke-miterlimit:10;}
	.st21{stroke:#747776;stroke-width:8;stroke-miterlimit:10;}
	.st22{fill:none;stroke:#000000;stroke-width:6;stroke-miterlimit:10;}
</style>
<g>
	<path id="_Compound_Path__1_" class="st0" d="M309.3,71.5L61.5,214.6v286.1l247.8,143.1L557,500.7V214.6L309.3,71.5z"/>
	<g>
		<path class="st1" d="M137.1,275.7c-0.7-0.6-1.9-1.6-3.2-2.6c-1-0.8-2.2-0.7-3.4-0.1c-2.7,1.4-4.3,3.6-5.1,6.5
			c-1.8,6.3,2.3,13.2,8.5,14.4c0.9,0.2,1.7,0.2,2.5-0.4c0.4-0.3,0.9-0.5,1.3-0.7c1.4-0.5,2.2-1.5,2.4-2.9
			C141.1,284.9,140.2,280.3,137.1,275.7z"/>
		<path class="st2" d="M150.9,320.1c5.4,5.9,10.8,11.8,16.3,17.7c0.5-0.4,1.1-0.8,1.8-1.3c-1.2-1.4-2.3-2.7-3.5-4
			c-4.6-5-9.3-9.9-13.7-15.1c-2.3-2.7-4.2-5.7-6.3-8.5c-0.2-0.3-0.5-0.5-0.8-0.7c-0.2-0.5-0.3-1.1-0.7-1.7c-2.3-4-4.2-8.1-5.5-12.3
			c-0.1-0.2-0.1-0.4-0.3-0.8c-0.7,0.4-1.3,0.6-1.9,1c-0.1,0.1,0,0.7,0.1,1c1.8,5.6,4.5,10.9,7.9,15.9c1.5,2.2,3.2,4.4,4.8,6.6
			c0.7,0.9,1.3,2,2.6,2C151.5,320,151.2,320.1,150.9,320.1L150.9,320.1z"/>
		<path class="st3" d="M147.7,314.6c-2.9,0.4-5.7,1.3-8.2,2.8c-0.6,0.3-1.1,0.6-1.7,1c0-0.1-0.1-0.2-0.1-0.3
			c2.1-1.2,4.2-2.4,6.3-3.6c-1.3-0.5-2.6-0.3-3.7,0.3c-2.2,1.2-3.8,3.2-5.4,5.1c0,0.1,0,0.2,0.1,0.3c1.6,0,3.1,0.2,4.7,0.1
			c1.1-0.1,2.3-0.3,3.4-0.8c1.4-0.6,2.4-1.8,2.4-3.5c0-0.2,0.3-0.5,0.5-0.6C146.4,315,147.1,314.8,147.7,314.6
			C147.7,314.5,147.7,314.6,147.7,314.6z"/>
		<path class="st3" d="M142,306.2c0.1-0.2,0.3-0.4,0.4-0.6c0.5-0.8,0.9-1.3,2.2-1.1c1.8,0.3,3.2-1,4.1-2.5c1.2-2,1.5-4.3,2-6.5
			c-0.1-0.1-0.1-0.2-0.2-0.2c-1.7,0.9-3.3,1.8-5,2.7c-1.2,0.7-2.1,1.7-2.5,3c-0.2,0.5-0.2,1.1-0.4,1.8c1.8-1.8,3.5-3.4,5.1-5
			c0.1,0.1,0.2,0.2,0.2,0.2C145.4,300.3,143.4,303,142,306.2z"/>
		<path class="st1" d="M132.9,294.7c-6.5-2.5-9.2-7.3-8.7-14.3c-1.6,0.5-3.1,0.1-4.6-0.3c-0.2-0.1-0.6,0-0.8,0.2
			c-0.1,0.1,0,0.5,0.1,0.7c0.4,0.6,0.9,1.2,1.3,1.8c1.1,1.5,2.4,2.9,3.4,4.5c1.7,2.5,3.6,4.7,6.2,6.4
			C130.7,294.3,131.7,294.8,132.9,294.7z"/>
		<path class="st1" d="M139.3,277.1c0.5-1,1.1-2.1,1.7-3.3c-1.6-2.3-4.3-2.9-5.9-1.3C136.6,274,138,275.6,139.3,277.1z"/>
		<path class="st1" d="M141.2,290.3c0.9-2.1,1-4.4,0.9-6.6c-0.1-2.7-0.3-5.5-0.5-8.2c0-0.1,0-0.3-0.1-0.4c-0.1,0-0.2-0.1-0.2-0.1
			c-0.3,0.8-0.7,1.5-1,2.3c-0.4,0.8-0.3,1.6,0,2.4c1.2,3.1,1.4,6.4,0.9,9.7c0,0.3-0.2,0.6-0.2,0.8
			C141,290.2,141.1,290.2,141.2,290.3z"/>
		<path class="st1" d="M126.3,275.1c-1.3,0.7-2.5,1.3-3.5,2.1c-0.6,0.4-0.5,1.8,0,2.3c0.3,0.3,1.6,0.1,1.8-0.4
			C125.1,277.9,125.7,276.6,126.3,275.1z"/>
		<path class="st2" d="M150.6,311.3c3.7,10.1,7.3,20.1,11,30.3c1.1-0.2,2.2-0.4,3.6-0.7c-0.7-2.3-1.4-4.6-2.2-6.8
			c-3.1-8.6-6.4-17.1-9.2-25.7c-1.5-4.5-2-9.2-3-13.8c-0.1-0.5-0.4-0.9-0.6-1.3c0.1-0.7,0.3-1.6,0.2-2.4c-0.4-6.1-0.3-12.2,0.9-18.2
			c0.1-0.3,0.1-0.6,0.1-1.1c-1.2,0.1-2.4,0.1-3.5,0.4c-0.3,0.1-0.5,0.8-0.6,1.3c-1.4,8-1.3,15.9,0.1,23.9c0.6,3.6,1.5,7.1,2.2,10.6
			c0.3,1.5,0.5,3.2,2.4,3.8C151.5,311.4,151,311.4,150.6,311.3L150.6,311.3z"/>
		<path class="st4" d="M158.6,253.4c3.9-2.3,7.9-4.4,12.5-5.8c-0.2,0.7-0.3,1.2-0.5,1.6c-3.2,7.6-7.6,14.4-13.8,19.9
			c-4.2,3.7-9.1,5.5-14.7,3.7c-2.7-0.9-4.9-2.4-5.4-5.5c-0.1-1,0-1.8,1-2.2c7.6-3,13.5-8.4,19.1-14.2c3.1-3.2,6.6-5.9,11-7.2
			c2.7-0.8,5-0.8,6.8,0.2C169,246.7,162.6,248,158.6,253.4z"/>
		<path class="st4" d="M122.3,237.2c2.7-0.7,4.3-3.2,7-3c0,0.2,0.1,0.3,0.1,0.3c-2.1,3.6-1.7,6.8,0.9,10c1.5,1.8,3,3.8,2.1,6.5
			c-0.1,0.2-0.1,0.4-0.2,0.6c-1.6-1.8-3.3-3.5-4.8-5.4c-1.4-1.8-2.6-3.8-4-5.8c-0.9,1.6-0.6,3.7,0.8,5.2c1.1,1.2,2.4,2.3,3.6,3.5
			c2.8,3,4.5,6.6,5.6,10.6c-1-1.3-1.9-2.6-2.9-3.7c-3.1-3.4-6.2-6.8-9.3-10.1c-1.6-1.8-3.1-3.6-3.7-6c-0.7-3.1,0.6-6.2,3.4-7.4
			c3.8-1.7,7.5-3.5,11.7-4.1c1.5-0.2,3.1-0.2,4.6,0.1c1.4,0.2,2.5,1.2,3.1,2.8c-2,0.7-3.9,1.1-5.9,0.7
			C128.9,230.3,126.4,232.3,122.3,237.2z"/>
		<path class="st4" d="M135.4,264.3c-1.7,1.4-1.3,3.2-0.5,5.4c-1.5-0.5-2.6-0.9-3.6-1.4c-1.7-0.8-3.3-1.7-4.9-2.6
			c-3.3-1.8-6.7-3-10.5-3.4c-1.6-0.2-1.8-0.6-1.3-2.1c1.2-3.2,3.2-5.8,5.8-8c1.9-1.6,3.1-1.5,4.8,0.3c2.1,2.3,4,4.8,6,7.2
			C132.5,261.2,133.9,262.6,135.4,264.3z"/>
		<path class="st4" d="M161,244.7c0.3-2.2,0.6-4.2,0.8-6.2c0.1-0.8,0.1-1.7,0.1-2.5c-0.1-2.2-1.8-3.2-3.8-2.2
			c-2.4,1.2-3.5,0.9-4.7-1.4c-1.7-3.1-4.7-5-8.6-3.5c-0.3,0.1-0.7,0.3-1,0.2c-0.8-0.2-1.5-0.6-2.3-0.9c0.3-0.6,0.5-1.5,1-1.9
			c3.6-2.8,7.6-3,11.6-1.2c2.6,1.2,5,3,7.4,4.7c2.1,1.5,4.1,3.2,6.1,4.8c2,1.6,2.6,3.4,1.9,5.4c-0.4,1.3-1.3,2.2-2.7,2.6
			C164.9,243.2,163.1,244,161,244.7z"/>
		<path class="st4" d="M135.3,240.6c2.6,0.3,5.3,0.8,7.9,0.9c5,0.1,9.3-2,13.2-5.1c0.6-0.5,2-1,2.4-0.7c0.7,0.5,1.2,1.7,1.2,2.6
			c-0.1,2.4-0.4,4.9-1,7.2c-0.2,1-1.3,1.8-2.2,3c-1.4-2.9-0.7-5.3,0.2-7.8c-2.8,1.9-3.4,3.8-2.1,6.5c0.7,1.4,0.7,2.4-0.5,3.6
			c-2.4,2.5-2.3,2.6-5.3,0.7c-3.5-2.2-7.1-4.4-10.6-6.8c-1.4-1-2.4-2.5-3.6-3.8C135.1,240.8,135.2,240.7,135.3,240.6z M156.5,238.3
			c-2.2,1.4-4.4,3.4-7,4.4c-2.6,1.1-5.6,1.2-8.4,1.8c0.6,0.7,1.4,1.2,2.2,1.4C148.9,247.2,154.4,244,156.5,238.3z"/>
		<path class="st4" d="M140.1,263c-1.1-0.5-2.5-0.7-3.2-1.5c-2.7-2.8-3.6-6.4-3.2-10.2c0.1-1.2,0.6-1.5,1.9-1c1.7,0.7,3.6,1,5.3,1.6
			c2.5,0.9,5,1.8,7.4,2.9c1.6,0.8,1.6,1.5,0.2,2.5c-1.9,1.4-3.7,2.8-5.6,4.1c-0.7,0.5-1.6,0.8-2.5,1.2
			C140.2,262.8,140.1,262.9,140.1,263z"/>
		<path class="st3" d="M148.5,293.8c3.6-3.3,7.7-5.7,12.4-7.2c1-0.3,2-0.7,3-1c-0.1-0.2-0.1-0.3-0.2-0.5c-3.8,1.3-7.5,2.5-11.4,3.8
			c0.8-2.2,2.4-3.6,4.5-4.4c4-1.4,8.1-1.1,12.2-0.9c0.1,0.1,0.2,0.3,0.3,0.4c-1.7,2-3.2,4.1-5,6c-1.3,1.4-2.9,2.6-4.6,3.4
			c-2.4,1.1-4.8,1-6.9-0.9c-0.2-0.2-0.9-0.2-1.3-0.1C150.4,292.8,149.4,293.3,148.5,293.8C148.4,293.8,148.5,293.8,148.5,293.8z"/>
		<path class="st3" d="M150.1,310.9c-0.4,0-0.8-0.1-1.1-0.1c-1.5-0.2-2.7-0.3-3.8,1.5c-1.6,2.6-4.7,2.9-7.5,2.3
			c-3.8-0.8-7-2.9-10.2-4.9c0-0.2-0.1-0.3-0.1-0.5c2.9-1.1,5.8-2.2,8.8-3.2c2.1-0.7,4.3-0.7,6.4,0.2c0.9,0.4,1.6,1,2.7,1.6
			c-4.1,0.3-7.9,0.5-11.7,0.8c0,0.2,0,0.4,0,0.6C139.1,308.5,144.7,309,150.1,310.9z"/>
		<path class="st4" d="M150.2,255c-3-3.8-7.6-4-11.6-5.5c-4.7-1.7-7.1-5.4-8.5-9.9c-0.5-1.5,0.1-2.8,1.3-3.7
			c0.3-0.3,0.9-0.4,1.3-0.3c0.3,0.1,0.6,0.7,0.5,1.1c-0.8,5.6,2.8,8.5,6.9,11c2.7,1.7,5.5,3.1,8.2,4.8c0.8,0.5,1.5,1.3,2.2,2
			C150.4,254.6,150.3,254.8,150.2,255z"/>
		<path class="st4" d="M139.5,240c-1.6-0.4-2.9-0.6-4.2-1c-0.3-0.1-0.6-0.8-0.6-1.2c0.1-0.9,0.3-1.8,0.5-3c3.2-0.7,6.5-1.5,9.9-0.1
			c1,0.4,1.9,1,2,2.3c0,1.3-0.7,2.1-1.8,2.6c-0.9,0.3-2,0.5-3,0.6c-0.4,0-1-0.3-1.3-0.7c-0.2-0.2,0-1,0.2-1.2c0.4-0.3,1-0.4,1.6-0.4
			c0.3,0,0.7,0.3,1.1,0.5c-0.6-1.4-2.8-2.3-4.2-1.7C138.2,237.5,138.8,238.6,139.5,240z"/>
		<path class="st4" d="M142.5,232.4c2.2-1.5,6.6-2,8.2-0.3c1.2,1.4,1.4,1.8,0.3,3.2c-0.3,0.3-0.5,0.7-0.8,1c1.3,0.5,2.3-1.7,3.7,0
			c-1.1,0.6-2.1,1.2-3.1,1.8c-0.7,0.4-1.5,0.7-2.5,1.2c0.2-1.9,1-3.9-0.9-4.9C145.9,233.5,144.2,233,142.5,232.4z"/>
		<path class="st4" d="M156.5,238.3c-2.2,5.6-7.7,8.9-13.2,7.6c-0.8-0.2-1.6-0.7-2.2-1.4c2.8-0.6,5.8-0.7,8.4-1.8
			C152.1,241.7,154.3,239.8,156.5,238.3z"/>
		<path class="st1" d="M158.8,274.7c0.6-0.9,1.4-2.5,2.4-4c0.8-1.2,2.1-1.6,3.5-1.4c3.3,0.5,5.7,2.2,7.5,5c4,6.1,2.2,14.9-3.9,18.6
			c-0.9,0.5-1.7,0.9-2.7,0.5c-0.5-0.2-1.1-0.2-1.6-0.2c-1.6-0.1-2.8-0.8-3.5-2.2C157.8,286,157.1,280.8,158.8,274.7z"/>
		<path class="st2" d="M162,320.3c-2.8,6.5-5.7,13-8.6,19.6c-0.7-0.2-1.4-0.4-2.4-0.6c0.6-1.5,1.1-3,1.7-4.4
			c2.4-5.6,4.9-11,7.2-16.7c1.1-2.9,1.7-6,2.6-9c0.1-0.3,0.3-0.5,0.5-0.8c0-0.5-0.1-1.1-0.1-1.6c0.6-4,0.7-8.1,0.2-12.1
			c0-0.2,0-0.4,0-0.8c0.8,0.1,1.6,0.2,2.3,0.4c0.2,0.1,0.3,0.6,0.4,0.9c0.6,5.3,0.2,10.6-1,15.8c-0.5,2.3-1.3,4.6-1.9,6.9
			c-0.3,1-0.5,2.1-1.7,2.4C161.4,320.3,161.7,320.3,162,320.3L162,320.3z"/>
		<path class="st3" d="M164.1,309.1c-0.2-0.1-0.4-0.3-0.6-0.4c-0.8-0.6-1.4-1-2.7-0.4c-1.8,1-3.6,0.2-5.1-1.1
			c-1.9-1.7-3.1-4-4.3-6.1c0-0.1,0.1-0.2,0.1-0.3c2,0.3,4.1,0.6,6.1,1c1.5,0.3,2.7,1,3.6,2.2c0.4,0.5,0.6,1.1,1,1.8
			c-2.5-1.2-4.8-2.3-7.1-3.4c-0.1,0.1-0.1,0.2-0.2,0.3C158.6,304.1,161.6,306.2,164.1,309.1z"/>
		<path class="st1" d="M169.7,293.4c5.9-5.1,7.1-11.3,4.2-18.5c1.9-0.1,3.3-1,4.7-2c0.2-0.2,0.6-0.2,0.9-0.1
			c0.1,0.1,0.2,0.5,0.1,0.8c-0.2,0.8-0.5,1.6-0.8,2.4c-0.7,2-1.4,4-2,6.1c-0.9,3.3-2.1,6.4-4.2,9.2
			C171.9,292.2,171,293.1,169.7,293.4z"/>
		<path class="st1" d="M156.9,277c-0.9-0.9-1.9-1.9-3-2.9c0.9-3.1,3.5-4.7,5.7-3.6C158.7,272.8,157.8,274.9,156.9,277z"/>
		<path class="st1" d="M159.5,291.8c-1.6-1.9-2.5-4.3-3.2-6.7c-0.8-3-1.6-5.9-2.3-8.9c0-0.2-0.1-0.3-0.1-0.5
			c0.1-0.1,0.2-0.1,0.2-0.2c0.6,0.7,1.2,1.4,1.9,2.1c0.6,0.7,0.9,1.5,0.9,2.6c-0.1,3.8,0.7,7.3,2.4,10.7c0.1,0.3,0.4,0.5,0.5,0.8
			C159.7,291.7,159.6,291.8,159.5,291.8z"/>
		<path class="st1" d="M169.9,270c1.6,0.3,3,0.5,4.4,0.9c0.7,0.2,1.1,1.8,0.8,2.5c-0.2,0.5-1.7,0.7-2,0.3
			C172,272.5,171,271.4,169.9,270z"/>
	</g>
	<path class="st5" d="M326.9,484.2c3.9,1,7.6,1,11.5,0c0,5.9,0,11.8,0,17.7c-3.8,0-7.6,0-11.5,0C326.9,496,326.9,490.1,326.9,484.2z
		"/>
	<path class="st5" d="M283.5,484.2c0,5.9,0,11.8,0,17.8c-3.8,0-7.5,0-11.4,0c0-5.9,0-11.8,0-17.7"/>
	<path d="M440.1,322.6c-4.5,5.6-5.1,11.7-2,18.1c0.3,0.7,0.3,1.2-0.2,1.8c-9.3,11.3-18.6,22.6-27.9,33.9c0,0-0.1,0.1-0.1,0.1
		c2.6,2.1,5.4,4.4,8,6.6c0.3-0.4,0.5-0.7,0.8-1c9-11,18.1-21.9,27.1-32.9c0.6-0.7,1.1-0.8,1.9-0.6c6.7,1.8,12.4,0.1,17-5.1
		c2.3-2.7,4.5-5.4,6.8-8.2c2.1-2.6,1.8-5.6-0.5-7.5c-2.3-1.9-5.3-1.5-7.5,1.1c-2.2,2.6-4.3,5.2-6.5,7.9c-1.3,1.6-3,2.5-5.2,2.3
		c-2.2-0.2-3.9-1.3-4.8-3.4c-1-2.2-0.6-4.3,0.9-6.2c2.3-2.8,4.6-5.6,6.9-8.4c1.9-2.4,1.4-5.7-1.2-7.4c-2.2-1.5-5-1.1-6.9,1.2
		C444.4,317.3,442.2,319.9,440.1,322.6z"/>
	<path class="st6" d="M409,393.7c0.1-0.3,0.4-0.5,0.8-0.7c7.4-3.3,11.3-10.6,9.7-18.1c-1.7-7.8-8.1-12.8-16.3-12.8c-7,0-14,0-20.9,0
		c-0.5,0-1,0-1.5,0c0.1-0.3,0.1-0.4,0.1-0.4c0.1-0.1,0.2-0.3,0.4-0.4c7.6-7.7,11.3-17,11.2-27.8c-0.1-17.7,0-35.4,0-53.1
		c0-1.7-0.1-3.4-0.3-5.1c-2.1-18.2-17.2-32.5-35.5-33.3c-5.7-0.3-11.5-0.1-17.2-0.1c-0.5,0-1.1,0-1.7-0.1c0-4.2,0-8.2,0-12.2
		c0-0.9,0.2-1.5,1-2.2c3.1-2.5,4.3-5.8,3.6-9.7c-0.9-4.4-4.5-7.5-8.7-7.9c-4.5-0.4-8.5,2.1-10.2,6.2c-1.6,4.1-0.4,8.7,3.1,11.5
		c0.7,0.6,1,1.1,1,2c-0.1,3.6-0.1,7.2,0,10.8c0,1.3-0.4,1.7-1.7,1.7c-13.7,0-27.5,0-41.2,0c-0.5,0-1-0.1-1.6-0.1c0-4.2,0-8.3,0-12.3
		c0-0.9,0.2-1.5,1-2c3.2-2.6,4.4-6,3.5-10.1c-1-4.2-4.6-7.2-8.9-7.5c-4.4-0.3-8.4,2.2-10,6.3c-1.6,4-0.4,8.5,3,11.2
		c0.9,0.7,1.1,1.4,1.1,2.4c-0.1,2.2,0,4.4,0,6.6c0,1.8,0,3.6,0,5.6c-0.7,0-1.3,0-1.9,0c-4.9,0-9.8,0-14.6,0
		c-21.2,0.2-38.1,16.7-38.2,37.7c-0.1,18.4-0.1,36.7,0,55.1c0.1,10.2,3.8,19,10.9,26.4c0.3,0.3,0.5,0.6,1,1.1c-0.8,0-1.2,0-1.7,0
		c-7,0-14,0-20.9,0c-1.1,0-2.2,0-3.3,0.2c-7.3,1.3-12.5,7-13.3,14.3c-0.8,6.8,3.2,13.5,9.8,16.3c0.7,0.3,1.1,0.7,1.1,1.4
		c3.4,0,6.9,0,10.3,0c0,0,0,0,0,0c7.6,0,15,0,22.6,0c0,0.6,0,1.1,0,1.6c0,10.9,0,21.8,0,32.7c0,5.1-0.1,10.2,0,15.4
		c0.1,7.7,5.5,14.1,13.1,15.4c2.7,0.5,5.5,0.3,8.3,0.3c0.8,0,1.2,0.2,1.4,1c0.8,2.8,2.2,5.3,4,7.6c0.4,0.5,0.6,1.2,0.6,1.8
		c0,7.2,0,14.4,0,21.7c0,0.5,0,0.9,0,1.5c-2.3,0-4.3,0-6.4,0c-14.4,0.2-26.3,12.1-26.4,26.6c0,3.3,2.1,5.5,5.4,5.5
		c19.9,0,39.8,0,59.7,0c3.2,0,5.3-2.2,5.3-5.3c0-7.2,0-14.3,0-21.5c0-2.8-1.7-4.8-4.5-5.3c-0.3,0-0.5-0.1-0.8-0.1
		c-0.1-0.2-0.1-0.2-0.1-0.3c0-7.7,0-15.5,0-23.2c0-0.4,0.3-0.9,0.5-1.3c1.3-2.5,2.7-5,4-7.6c0.3-0.7,0.6-1,1.4-1c3.5,0,7.1,0,10.6,0
		c0.9,0,1.1,0.4,1.5,1.1c1.2,2.4,2.5,4.8,3.7,7.2c0.3,0.7,0.8,1.5,0.8,2.2c0.1,7.2,0,14.3,0,21.5c0,0.5,0,0.9,0,1.3
		c-3.6,0.7-5.4,2.2-5.4,5.1c-0.1,7.4-0.1,14.8,0,22.2c0,2.9,2.2,4.9,5.1,4.9c20,0,40.1,0,60.1,0c3.1,0,5.3-2.2,5.1-5.3
		c-0.2-2.7-0.5-5.6-1.3-8.2c-3.5-11.1-13.8-18.5-25.4-18.6c-1.9,0-3.9,0-5.9,0c-0.1-0.4-0.1-0.6-0.1-0.9c0-7.6,0-15.1,0-22.7
		c0-0.5,0.3-1,0.6-1.5c1.3-2.4,2.6-4.7,3.8-7.2c0.4-0.9,0.8-1.3,1.8-1.3c2.5,0,5.1,0.2,7.6-0.2c8.1-1.3,13.5-7.9,13.5-16.2
		c0-15.8,0-31.6,0-47.3c0-0.6,0-1.1,0-1.7c7.6,0,15,0,22.5,0c0,0,0,0,0,0c3.4,0,7,0,10.3,0C408.8,394.1,408.9,393.9,409,393.7
		 M206.7,384c-3.2,0-5.7-2.6-5.7-5.8c0-3.2,2.6-5.8,5.8-5.8c3.2,0,5.7,2.6,5.7,5.8C212.5,381.4,209.9,384,206.7,384z M228.3,280.3
		c0-14.1,9.4-25.3,23.3-27.8c1.7-0.3,3.5-0.4,5.3-0.4c16.1,0,32.2,0,48.4,0c16.3,0,32.6,0,48.9,0c12.3,0,22.8,7.5,26.5,18.9
		c1,3,1.4,6.3,1.4,9.4c0.2,10.4,0,20.8,0.1,31.3c0,2.1-0.5,4-2.1,5.3c-2.6,2.1-5.2,4.2-8.2,5.7c-8.3,4.5-17.3,6.7-26.5,8.5
		c-18.4,3.5-36.9,4.2-55.6,3.1c-13.8-0.8-27.4-2.8-40.6-7.1c-5.5-1.8-10.9-4-15.6-7.4c-1.3-0.9-2.4-2-3.5-3.1c-1.3-1.4-1.9-3-1.9-5
		C228.3,301.2,228.3,290.8,228.3,280.3z M234.3,383.9c-4.1,0-8.3,0-12.5,0c1.3-3.8,1.4-7.5,0-11.4c4.3,0,8.4,0,12.6,0
		C234.3,376.3,234.3,380.1,234.3,383.9z M289,515.1c-16.3,0-32.5,0-48.9,0c0.1-0.4,0.1-0.7,0.3-1c2.2-5.9,8.3-10.4,14.6-10.4
		c11.1-0.1,22.2,0,33.3,0c0.2,0,0.5,0,0.8,0.1C289,507.6,289,511.3,289,515.1z M278.5,466c-4.3,0.3-9.2-2.5-10.4-6.1
		c6.6,0,13,0,19.4,0C287,462.8,282.6,465.7,278.5,466z M283.5,475.6c0,5.9,0,11.8,0,17.8c-3.8,0-7.5,0-11.4,0c0-5.9,0-11.8,0-17.7
		C276,476.5,279.7,476.5,283.5,475.6z M354.6,503.7c7,0,13.2,4.4,15.5,10.8c0.1,0.2,0.1,0.4,0.2,0.7c-16.4,0-32.6,0-48.9,0
		c0-3.8,0-7.6,0-11.4c0.4,0,0.9-0.1,1.3-0.1C333.3,503.7,344,503.6,354.6,503.7z M333,466c-4.5,0.1-7.9-1.9-10.4-6
		c6.7,0,13.2,0,19.9,0C340.3,463.8,337.2,465.9,333,466z M338.3,493.3c-3.8,0-7.6,0-11.5,0c0-5.9,0-11.7,0-17.7c3.9,1,7.6,1,11.5,0
		 M365.7,372.4c0,23.5,0,47.1,0,70.6c0,4.4-2.3,6.6-6.6,6.6c-35.9,0-71.8,0-107.7,0c-4.4,0-6.7-2.3-6.7-6.7c0-23.5,0-47.1,0-70.6
		c0-0.5,0-0.9,0-1.7c6.5,2.2,12.8,1.7,19.2,1.7c25.9,0,51.7,0,77.6,0c4.1,0,8.1,0.2,12.2,0c4-0.2,8-0.7,12.1-1.1
		C365.7,371.4,365.7,371.9,365.7,372.4z M358.8,361.8c-1.6,0.2-3.1,0.4-4.7,0.4c-32.6,0-65.1,0-97.7,0c-14,0-25.2-9.3-27.7-23.1
		c-0.6-3.3-0.4-6.7-0.7-10.5c1,0.6,1.5,0.9,2.1,1.3c7.1,4.3,14.8,7,22.8,9.1c13,3.4,26.2,5.1,39.6,5.8c12.4,0.6,24.9,0.4,37.2-0.9
		c14.6-1.5,29-4.1,42.7-10c3.2-1.4,6.3-3.2,9.5-4.8C384.2,348.3,371.8,359.8,358.8,361.8z M376.1,384c0-3.8,0-7.6,0-11.5
		c4.1,0,8.3,0,12.5,0c-1.3,3.8-1.3,7.6,0,11.5C384.4,384,380.3,384,376.1,384z M403.8,384c-3.2,0-5.9-2.6-5.9-5.8
		c0-3.2,2.6-5.7,5.8-5.8c3.2,0,5.9,2.6,5.9,5.8C409.5,381.4,406.9,384,403.8,384z"/>
	<path class="st7" d="M221.8,383.9c1.3-3.8,1.4-7.5,0-11.4c4.3,0,8.4,0,12.6,0c0,3.8,0,7.5,0,11.4
		C230.2,383.9,226.1,383.9,221.8,383.9z"/>
	<path class="st7" d="M388.7,384c-4.3,0-8.4,0-12.6,0c0-3.8,0-7.6,0-11.5c4.1,0,8.3,0,12.5,0C387.3,376.3,387.3,380.1,388.7,384z"/>
	<path class="st5" d="M403.8,384c-3.2,0-5.9-2.6-5.9-5.8c0-3.2,2.6-5.7,5.8-5.8c3.2,0,5.9,2.6,5.9,5.8
		C409.5,381.4,406.9,384,403.8,384z"/>
	<path class="st7" d="M201,378.2c0-3.2,2.6-5.8,5.8-5.8c3.2,0,5.7,2.6,5.7,5.8c0,3.2-2.6,5.9-5.8,5.8C203.5,384,201,381.4,201,378.2
		z"/>
	<path class="st7" d="M342.6,460c-2.2,3.8-5.4,5.9-9.6,6c-4.5,0.1-7.9-1.9-10.4-6C329.3,460,335.8,460,342.6,460z"/>
	<path class="st7" d="M268.1,459.9c6.6,0,13,0,19.4,0c-0.5,2.9-4.9,5.8-9,6.1C274.2,466.3,269.3,463.5,268.1,459.9z"/>
	<path d="M343.9,298.9c0-1,0-1.9,0-2.9c0.1-2.7,2.2-4.8,4.8-5c2.7-0.2,5.1,1.6,5.3,4.3c0.2,2.3,0.2,4.6,0,6.9
		c-0.2,2.8-2.7,4.7-5.4,4.5c-2.7-0.2-4.7-2.3-4.8-5.1C343.9,300.7,343.9,299.8,343.9,298.9z"/>
	<path d="M266.7,298.9c-0.1,1.2,0,2.5-0.2,3.7c-0.4,2.5-2.8,4.3-5.2,4.2c-2.6-0.2-4.7-2.2-4.8-4.8c-0.1-2.1-0.1-4.1,0-6.2
		c0.1-2.5,2.2-4.6,4.7-4.8c2.6-0.2,5,1.5,5.4,4.1C266.6,296.4,266.6,297.7,266.7,298.9z"/>
	<path d="M261.8,411c0-3.5,0-7.1,0-10.6c0-3.1,2.1-5.4,5.1-5.5c2.9,0,5.2,2.2,5.2,5.3c0,7.2,0,14.3,0,21.5c0,3.1-2.3,5.3-5.2,5.3
		c-2.9,0-5-2.3-5-5.5C261.8,418.1,261.8,414.5,261.8,411z"/>
	<path d="M338.4,411c0-3.5,0-7.1,0-10.6c0-3.1,2.1-5.4,5-5.5c2.9,0,5.2,2.2,5.2,5.3c0.1,7.2,0.1,14.3,0,21.5c0,3.1-2.3,5.4-5.2,5.3
		c-2.9,0-5-2.3-5.1-5.4C338.4,418.1,338.4,414.6,338.4,411z"/>
	<path class="st5" d="M305.3,399.8c6.2,0,11.2,5.1,11.2,11.3c0,6.2-5.1,11.3-11.4,11.2c-6.3,0-11.2-5.1-11.2-11.4
		C294,404.7,299.1,399.7,305.3,399.8z"/>
	<path class="st8" d="M207.3,362.1c-8.9,0-16.1,7.2-16.1,16.1s7.2,16.1,16.1,16.1c8.7,0,16.1-7.3,16.1-16.1
		C223.4,369.3,216.2,362.1,207.3,362.1z M207.3,384c-3.2,0-5.8-2.6-5.8-5.8c0-3.2,2.6-5.8,5.8-5.8s5.8,2.6,5.8,5.8
		C213.1,381.4,210.5,384,207.3,384z"/>
	<path class="st8" d="M403.7,362.1c-8.9,0-16.1,7.2-16.1,16.1s7.2,16.1,16.1,16.1c8.7,0,16.1-7.3,16.1-16.1
		C419.8,369.3,412.6,362.1,403.7,362.1z M403.7,384c-3.2,0-5.8-2.6-5.8-5.8c0-3.2,2.6-5.8,5.8-5.8c3.2,0,5.8,2.6,5.8,5.8
		C409.5,381.4,406.9,384,403.7,384z"/>
	<circle class="st7" cx="403.7" cy="378.2" r="5.8"/>
	<g>
		<g>
			<path class="st9" d="M522.4,279.9c-5-22.1-21.1-35.6-42.6-37.1c11,1.4,21.3,8.3,27.9,19.6c6.6,11.3,8.8,23.6,7.3,36.7
				c-2.1,19.1-9.6,34.9-26.8,44.3c-5.8,3.2-12.1,4.5-18.2,4.1c1.8,0.2,3.6,0.3,5.4,0.5c11.1,1.1,22.6-3.7,30.7-10.9
				C524.1,321.2,524.8,297.6,522.4,279.9z"/>
			<path class="st10" d="M469.9,347.5c-0.6-0.1-1.2-0.1-1.7-0.2C468.8,347.4,469.4,347.5,469.9,347.5z"/>
			<path class="st10" d="M472,242.8c2.7-0.2,5.3-0.2,7.8,0C477.2,242.5,474.6,242.5,472,242.8z"/>
			<path class="st10" d="M512.9,309.2c3.1-12.8,2.7-25.4-2.2-37.7c-7.5-18.8-20.9-27.5-43.8-27.7c-6.8,1.9-13.3,6.1-18.8,12.8
				c-17.4,21.1-19.1,54.3-3.4,76.4c4.1,5.8,9.6,9.9,15.6,12.3C486.3,349.1,506.5,335.2,512.9,309.2z"/>
			<path class="st10" d="M515,299.1c1.5-13.1-0.7-25.4-7.3-36.7c-6.6-11.3-16.9-18.2-27.9-19.6c-2.5-0.2-5.1-0.2-7.8,0
				c-1.7,0.2-3.4,0.5-5.1,1c22.8,0.3,36.3,8.9,43.8,27.7c4.9,12.3,5.3,24.9,2.2,37.7c-6.4,26-26.6,39.9-52.5,36.1
				c2.5,1,5.2,1.6,7.9,2c0.6,0.1,1.2,0.1,1.7,0.2c6.1,0.4,12.4-0.9,18.2-4.1C505.3,334,512.9,318.2,515,299.1z"/>
		</g>
		<path class="st11" d="M505.9,298.4c1.2-10.3-0.5-20-5.6-28.9c-10.2-17.9-32.2-21.8-46.2-4.5c-13.5,16.7-14.9,42.9-2.7,60.4
			c7.8,11.2,21.9,14.7,33.7,8.1C498.4,326,504.3,313.6,505.9,298.4z"/>
		<path class="st9" d="M472.1,316.4c-1.2,1.8-2,4.7-3.7,5.3c-3,1.1-4.9-0.7-4.4-4.2c0.4-2.7-0.3-4.4-3.4-4.6
			c-1.2-0.1-3.3-1.4-3.3-1.8c0.4-2,0.9-5,2.2-5.5c3-1.2,3.2-3.3,3.4-5.7c0.4-4.7,1-9.4,1.2-14.1c0-1.3-1.4-2.6-2.1-4
			c-0.8-1.6-1.9-3.3-1.8-4.9c0-0.8,2.3-2,3.7-2.1c2.1-0.2,4.1,0.1,4.3-2.8c0.2-2.6,0.5-5.9,4.2-4.7c1.7,0.6,2.7,3.3,4,5
			c-0.3,0.3-0.6,0.5-0.9,0.8c0.1-0.9-0.1-2,0.3-2.5c0.9-1.1,2.1-2.6,3.4-2.8c2.2-0.3,3.6,1.1,3.1,3.5c-0.7,3.4,0.5,5.1,3.7,6.6
			c6.2,3,6.7,8.7,2.1,16c7.2,8,4.3,17.5-5.9,20.4c-1.4,0.4-3,2.1-3.5,3.5c-0.8,2.6-0.8,5.2-4.6,4.8c-3.9-0.5-2.8-3.2-2.7-5.5
			c0-0.4,0-0.8,0-1.2C471.6,316.1,471.9,316.3,472.1,316.4z M466.4,320.1l1.3,0c0.3-1.7,0.4-3.5,1.1-5.1c0.4-0.9,1.6-1.4,2.5-2.1
			c0.5,0.8,1.4,1.6,1.5,2.5c0.2,1.7,0.1,3.5,0.1,5.2l1.3,0.3c0.4-0.9,1.2-1.7,1.2-2.6c0-3.8,1.4-5.5,5.6-5.7c4.2-0.1,6.6-3,7.5-7.1
			c1-4.7,0.6-8.9-4.4-11.3c6.3-6.8,5.3-11.9-2.6-16.2c-1.1-0.6-1.5-2.7-1.9-4.1c-0.4-1.4-0.4-2.8-0.6-4.2c-0.9,0-0.6,0-1.5,0
			c-0.3,1.6-0.3,3.3-0.9,4.9c-0.4,0.9-1.5,1.6-2.2,2.4c-0.6-0.9-1.6-1.7-1.8-2.7c-0.4-1.6-0.2-3.4-0.3-5.6c-1.1,0.7-1.7,0.9-1.7,1.1
			c-0.3,4.7-1.7,8-7.4,6.6c-0.3-0.1-1.3,0.8-1.3,1.3c-0.1,0.7,0.3,2,0.8,2.1c4.3,1.1,3.4,4.4,3.2,7.3c-0.4,5.1-0.9,10.3-1.4,15.4
			c-0.2,2.2-0.6,4.2-3.5,4.6c-0.7,0.1-1.5,1.5-1.8,2.4c-0.1,0.4,0.9,1.7,1.4,1.7c5.8-0.2,6,3.3,5.4,7.6
			C465.7,319.1,466.2,319.6,466.4,320.1z"/>
		<path class="st12" d="M466.4,320.1c-0.2-0.5-0.7-1-0.7-1.4c0.6-4.3,0.4-7.8-5.4-7.6c-0.5,0-1.5-1.3-1.4-1.7
			c0.3-0.9,1.1-2.3,1.8-2.4c3-0.3,3.3-2.3,3.5-4.6c0.5-5.1,1-10.3,1.4-15.4c0.2-3,1.1-6.2-3.2-7.3c-0.4-0.1-0.8-1.4-0.8-2.1
			c0-0.5,1-1.4,1.3-1.3c5.7,1.4,7.2-1.9,7.4-6.6c0-0.2,0.6-0.4,1.7-1.1c0.1,2.2-0.1,3.9,0.3,5.6c0.2,1,1.2,1.8,1.8,2.7
			c0.8-0.8,1.9-1.4,2.2-2.4c0.6-1.5,0.6-3.2,0.9-4.9c0.9,0,0.6,0,1.5,0c0.2,1.4,0.2,2.9,0.6,4.2c0.4,1.5,0.8,3.5,1.9,4.1
			c7.8,4.3,8.8,9.4,2.6,16.2c4.9,2.4,5.4,6.6,4.4,11.3c-0.9,4.1-3.4,7-7.5,7.1c-4.1,0.1-5.6,1.8-5.6,5.7c0,0.9-0.8,1.7-1.2,2.6
			l-1.3-0.3c0-1.7,0.2-3.5-0.1-5.2c-0.1-0.9-1-1.7-1.5-2.5c-0.9,0.7-2.1,1.2-2.5,2.1c-0.7,1.6-0.8,3.4-1.1,5.1L466.4,320.1z
			 M473,308c5.6,0.5,8.7-1.4,9-5.3c0.2-3.7-2.7-6.2-7.8-6.7c-5.5-0.5-3.6,3.9-4.2,6.5C469.4,305.2,468.7,308.3,473,308z M475,281.5
			c-3.7-0.7-3.6,2.3-3.6,4.6c0,2.4-2.3,6.1,2.8,6.4c4.2,0.3,7-1.5,7.3-4.9C481.8,284.3,479.4,282,475,281.5z"/>
	</g>
	<g>
		<path class="st13" d="M313,404.7c6.4,5.1,4.7,9.9,1,14.5"/>
		<path class="st14" d="M323.5,417.4"/>
		<path class="st15" d="M310.1,414.9c3,2.2,5.9,4.4,8.7,6.6c0.3,0.2,0.6,0.6,0.6,1c0.1,2.3,0,4.7,0,7.1c-0.4,0-0.8,0.1-1.2,0.1
			c-4.1,0-8.3,0-12.4,0c-9.1,0-16.7-6.8-17.7-15.9c-0.8-7.4,2.9-14.3,9.5-17.8c0.6-0.3,0.9-0.7,0.8-1.4c-0.1-1,0-2,0-3
			c0-0.7,0.2-1.4,1.1-1.4c0.9,0,1.2,0.6,1.2,1.4c0,1,0,1.9,0,3c1.2-0.2,2.2-0.4,3.3-0.7c0-0.9,0-1.7,0-2.5c0-0.7,0.4-1.2,1.1-1.2
			c0.7,0,1.2,0.5,1.2,1.2c0,0.8,0,1.6,0,2.5c5.3,0.3,9.6,2.4,13,6.3c-1.4,1.4-2.7,2.8-4.1,4.2c-1.4,1.3-2.8,2.6-4.3,3.9
			c-0.5,0.4-0.7,0.7-0.4,1.4C311.4,411.4,311.2,413.2,310.1,414.9z M316.1,426.4c0.4-1.9,0.2-3.3-1.6-4.3c-1.9-1.1-3.6-2.6-5.4-4
			c-1-0.8-2-1.3-3.4-1.2c-3,0.1-5.3-2.4-5.2-5.4c0.1-2.8,2.8-5.5,5.6-4.9c1.7,0.3,2.5-0.4,3.5-1.4c0.3-0.3,0.7-0.6,1-0.9
			c1.4-1.3,2.8-2.7,4.3-4.1c-4.2-3.1-8.7-3.9-13.6-2.4c-0.3,0.1-0.6,0.6-0.6,1c-0.1,1.7,0,3.3-0.1,5c0,0.4-0.2,1-0.6,1.2
			c-0.8,0.5-1.6,0-1.7-1.1c0-1.5,0-3.1,0-4.8c-0.3,0.2-0.5,0.3-0.7,0.4c-3.6,2.4-5.7,5.8-6.4,10.1c-1.2,7.1,3.7,14.8,10.8,16.4
			c1.4,0.3,2.8,0.4,4.1,0.5C309.6,426.5,312.9,426.4,316.1,426.4z M305.8,413.9c1.1,0,2.1-1,2.1-2.1c0-1.1-1-2.1-2-2.2
			c-1.1,0-2.1,0.9-2.2,2C303.7,412.7,304.7,413.8,305.8,413.9z"/>
	</g>
	<path class="st16" d="M306.8,3.6L3.1,178.9v350.7l303.6,175.3l303.6-175.3V178.9L306.8,3.6z M558,499.3L306.8,644.4L55.5,499.3
		V209.2L306.8,64L558,209.2V499.3z"/>
	<path class="st17" d="M306.7,64L55.4,209.1v290.1l251.3,145.1l251.2-145.1V209.1L306.7,64z M545.3,492L306.7,629.7L68.1,492V216.5
		L306.7,78.7l238.6,137.8V492z"/>
	<path id="_Compound_Path_" class="st18" d="M306.7,66.2l-249.4,144v288l249.4,144l249.4-144v-288L306.7,66.2z"/>
	<path class="st19" d="M535.6,558.4c-7.2-2-14.1-4-21.3-6c2.5,4.3,5,8.5,7.4,12.7c-1,0.6-1.8,1.1-2.7,1.6
		c-3.7-6.4-7.5-12.7-11.3-19.3c7.2,2,14.2,4,21.4,6.1c-2.6-4.3-5-8.5-7.4-12.6c0.9-0.5,1.8-1,2.7-1.6
		C528,545.6,531.7,551.9,535.6,558.4z"/>
	<path class="st19" d="M404.6,614c-0.3,1-0.5,1.9-0.8,2.8c-0.8-0.2-1.5-0.4-2.2-0.5c-5.8-1-10.5,4.7-8.5,10.3
		c1.7,4.7,6.7,6.8,11.1,4.6c3.1-1.5,4.2-5.9,2.8-7.9c-1.4,0.8-2.9,1.7-4.4,2.6c-0.5-0.9-1-1.7-1.5-2.6c1.3-0.7,2.5-1.5,3.7-2.2
		c1.2-0.7,2.4-1.4,3.6-2.1c3.9,5,2.6,11.5-2.4,14.6c-3.9,2.4-9.1,2.1-12.5-0.8c-3.6-3-5-8.1-3.4-12.4
		C392.4,614.5,398.9,611.6,404.6,614z"/>
	<path class="st19" d="M465.6,592.5c0.5,0.8,0.9,1.6,1.4,2.3c0.5,0.7,0.4,1.2-0.1,1.8c-4,5.5-11.5,6.4-16.4,2
		c-3.3-2.9-4.4-7.7-2.9-12c1.4-4,5.3-6.9,9.6-7.2c0.7,0,1,0.1,1.3,0.7c0.4,0.8,0.9,1.5,1.4,2.4c-3.2-0.4-5.9,0.2-8,2.5
		c-1.2,1.3-1.8,3-1.9,4.7c-0.2,3.7,2.3,7.3,5.8,8.3C459.8,599.2,462.8,597.5,465.6,592.5z"/>
	<path class="st19" d="M433.2,596.1c3.1,5.2,6.1,10.4,9.1,15.6c-0.9,0.5-1.8,1-2.7,1.6c-3-5.1-6-10.3-9.1-15.5
		c-1.4,0.8-2.8,1.6-4.1,2.4c-0.5-0.9-1-1.6-1.5-2.5c3.6-2.1,7.3-4.3,11-6.5c0.5,0.8,0.9,1.6,1.4,2.5
		C435.9,594.5,434.6,595.3,433.2,596.1z"/>
	<path class="st19" d="M413.3,604.4c0.9-0.5,1.7-1,2.6-1.5c3.5,6,7.1,12,10.6,18.1c-0.8,0.5-1.7,1-2.6,1.5
		C420.4,616.5,416.9,610.5,413.3,604.4z"/>
	<path class="st19" d="M508.2,573.1c-0.9,0.5-1.7,1-2.6,1.5c-3.5-6-7.1-12-10.6-18.1c0.8-0.5,1.7-1,2.6-1.5
		C501.1,561,504.6,567,508.2,573.1z"/>
	<circle class="st20" cx="480.1" cy="572.7" r="11"/>
	<line class="st21" x1="165" y1="523.7" x2="447.6" y2="525.5"/>
	<path d="M199.8,376.5c-8.1-12.1-16.1-24.2-24.2-36.3c-0.5-0.8-0.5-1.3,0-2.1c3.1-5,3.7-10.3,1-15.6c-1.9-3.8-4.5-7.2-6.9-10.7
		c-1.8-2.8-4.9-3.5-7.4-1.8c-2.5,1.7-3,4.8-1.1,7.6c1.8,2.8,3.7,5.5,5.5,8.2c2,3.1,1.5,6.6-1.4,8.5c-2.8,1.8-6.2,1-8.2-2
		c-1.9-2.8-3.8-5.7-5.7-8.5c-1.8-2.7-4.9-3.3-7.4-1.6c-2.4,1.7-2.9,4.7-1.2,7.3c2,3,3.9,6,6,8.9c4,5.5,9.4,7.7,16.1,6.7
		c1-0.1,1.5,0,2.1,0.8c7.8,11.8,15.7,23.6,23.6,35.3c0.3,0.4,0.5,0.7,0.7,1.1c2.8-1.9,5.7-3.8,8.6-5.7
		C199.9,376.6,199.9,376.6,199.8,376.5z"/>
	<path class="st22" d="M148.8,324.4c-2.1-11.9,3.7-16.3,14.6-10.1"/>
</g>
</svg>
